<?xml version="1.0" standalone="no"?>
<!DOCTYPE svg PUBLIC "-//W3C//DTD SVG 1.1//EN" "http://www.w3.org/Graphics/SVG/1.1/DTD/svg11.dtd" >
<!--
2013-9-30: Created.
-->
<svg>
<metadata>
Created by iconfont
</metadata>
<defs>

<font id="iconfont" horiz-adv-x="1024" >
  <font-face
    font-family="iconfont"
    font-weight="500"
    font-stretch="normal"
    units-per-em="1024"
    ascent="896"
    descent="-128"
  />
    <missing-glyph />
    
    <glyph glyph-name="x" unicode="x" horiz-adv-x="1001"
d="M281 543q-27 -1 -53 -1h-83q-18 0 -36.5 -6t-32.5 -18.5t-23 -32t-9 -45.5v-76h912v41q0 16 -0.5 30t-0.5 18q0 13 -5 29t-17 29.5t-31.5 22.5t-49.5 9h-133v-97h-438v97zM955 310v-52q0 -23 0.5 -52t0.5 -58t-10.5 -47.5t-26 -30t-33 -16t-31.5 -4.5q-14 -1 -29.5 -0.5
t-29.5 0.5h-32l-45 128h-439l-44 -128h-29h-34q-20 0 -45 1q-25 0 -41 9.5t-25.5 23t-13.5 29.5t-4 30v167h911zM163 247q-12 0 -21 -8.5t-9 -21.5t9 -21.5t21 -8.5q13 0 22 8.5t9 21.5t-9 21.5t-22 8.5zM316 123q-8 -26 -14 -48q-5 -19 -10.5 -37t-7.5 -25t-3 -15t1 -14.5
t9.5 -10.5t21.5 -4h37h67h81h80h64h36q23 0 34 12t2 38q-5 13 -9.5 30.5t-9.5 34.5q-5 19 -11 39h-368zM336 498v228q0 11 2.5 23t10 21.5t20.5 15.5t34 6h188q31 0 51.5 -14.5t20.5 -52.5v-227h-327z" />
    

    
    <glyph glyph-name="dianzan" unicode="&#58884;" d="M858.12516687 552.27018989c-32.82318563 8.62263375-110.09495531 8.51998312-223.06508156 11.49684469 5.36372344 24.66295875 6.570585 46.88725031 6.570585 86.35681031 0 94.28679375-68.67503813 177.33288844-129.44599593 177.33288844-42.9097875 0-78.29923313-35.08149469-78.83742844-78.23399719-0.58999969-52.90429125-16.93827562-144.31783219-105.11689031-190.66496906-6.46697531-3.41336531-24.96995062-12.52430812-27.66476344-13.73021063l1.38530062-1.18000031c-13.80695906 11.89497563-32.92583625 21.01839-52.55796562 21.01839l-78.83742844 0c-43.472925 0-78.83742844-35.376015-78.83742844-78.83742844l0-420.48003468c0-43.472925 35.3645025-78.83742844 78.83742844-78.83742844l78.83742844 0c31.28343 0 57.43433906 18.88767375 70.11214406 45.37243781 0.30795094-0.10265062 0.87204844-0.25710563 1.23180469-0.30795093 1.74505687-0.46144687 3.77312156-0.97565813 6.28757719-1.64240625 0.46144687-0.10169062 0.7185525-0.15349594 1.2059025-0.30795094 15.14141438-3.74626031 44.26918594-10.72744688 106.55399625-25.04669813 13.37045437-3.02770687 83.86729781-18.06647063 156.98220562-18.06647062l143.63669438 0c43.80773813 0 76.2721275 16.33388531 94.13329781 50.65941281 17.455365 30.55528312 103.20011062 194.20113187 103.11472781 424.84219688C932.63976594 495.20807864 909.68253125 537.53937802 858.12516687 552.27018989zM275.67239 65.34848302c0-14.52551156-11.75395125-26.27946281-26.27946281-26.27946281l-78.83742844 0c-14.52551156 0-26.27946281 11.75395125-26.27946281 26.27946281L144.27603687 485.82851771c0 14.52551156 11.75395125 26.26603125 26.27946282 26.26603125l78.83742843 0c14.52551156 0 26.27946281-11.74051969 26.27946282-26.26603125L275.67239 65.34848302zM879.50235312 445.4859502c-10.95769031-264.11373094-96.26305406-383.473125-96.26305406-383.47312499-7.95492656-14.32021125-20.73538125-22.942845-47.83604719-22.94284501L591.76655844 39.06998021000004c-72.19105406 0-143.76620625 16.37321906-145.61391375 16.78382062-109.17110156 25.15030781-114.92048438 27.09970594-121.77215813 29.05006406l3.84987 386.1170925c0 39.94539656 0.89795156 29.85975469 0 29.358975 120.05300437 49.70965688 156.59654719 158.7272625 157.67485688 248.24033344 0.154455 12.57515438 9.85443844 26.27946281 26.27946281 26.27946281 27.79331625 0 76.88707031-55.76603062 76.88707031-124.77492281 0-62.31071344-2.4895125-73.08900562-24.32814562-138.03025594 262.79174719 0 260.94403969-3.75969094 284.14399031-9.84196687 28.74307219-8.21203219 31.2057225-32.02788469 31.2057225-40.23991688C880.09235375 453.00533208 879.83716625 454.31388427 879.50235312 445.4859502z"  horiz-adv-x="1024" />

    
    <glyph glyph-name="jinlingyingcaiwangtubiao100" unicode="&#59139;" d="M904.576 404.864h-49.075c-4.915 14.49-10.726 28.57-17.357 42.086 17.715 17.715 30.054 30.054 34.586 34.637 17.741 17.69 21.376 35.661 21.299 47.59-0.205 27.622-19.302 46.925-21.274 48.819l-69.248 69.299c-2.15 2.15-21.837 20.992-49.51 20.992-16.896 0-33.075-7.27-46.797-20.941l-34.893-34.867c-13.44 6.554-27.494 12.314-42.035 17.229v50.099c0 48.87-40.448 67.507-68.045 68.122h-98.355c-27.264-0.589-67.814-19.2-67.814-68.122v-50.125c-14.413-4.89-28.442-10.675-41.958-17.229l-35.328 35.302c-13.517 13.517-29.645 20.685-46.592 20.685-27.366 0-47.334-18.278-49.818-20.685l-69.504-69.53c-18.842-19.686-34.33-61.491 0.307-96.154l35.123-35.149c-6.605-13.491-12.39-27.571-17.357-42.086h-49.818c-48.922 0-67.584-40.55-68.198-68.25v-98.33c0.589-27.213 19.226-67.738 68.198-67.738h49.587c4.966-14.694 10.778-28.851 17.357-42.368l-34.893-34.944c-34.611-34.56-19.149-76.39 0-96.435l69.504-69.478c2.176-2.099 22.144-20.429 49.536-20.429 16.973 0 33.101 7.168 46.566 20.71l34.79 34.79c13.645-6.682 27.878-12.544 42.496-17.51v-48.538c0-53.888 44.518-68.147 68.224-68.147h97.997c27.341 0 68.045 18.15 68.045 68.147v48.614c14.746 4.992 28.979 10.854 42.573 17.485 17.51-17.562 29.696-29.722 34.227-34.202 17.485-17.613 35.302-21.325 47.155-21.325 27.853 0 47.334 19.302 49.254 21.274l69.222 69.248c19.354 19.379 35.302 61.030 0 96.41l-34.381 34.381c6.63 13.619 12.442 27.802 17.357 42.368h48.845c25.062 0 40.294 10.138 48.666 18.637 19.354 19.661 19.507 46.771 19.456 49.51v97.92c-0 27.418-18.15 68.224-68.122 68.224zM512.819 144.077c-79.411 0-144 64.589-144 144s64.589 144 144 144 144-64.589 144-144c0-79.411-64.614-144-144-144z"  horiz-adv-x="1024" />

    
    <glyph glyph-name="tubiao313" unicode="&#58916;" d="M840.221764 770.523338l-657.326684 0c-65.963435 0-119.486963-53.579813-119.486963-119.605672l0-391.408836c0-65.90408 53.522505-119.425562 119.486963-119.425562l336.449541 0c0 0 139.181436-113.29464 158.063364-128.052447 18.882952-14.691288 26.511042-11.375617 26.26032 0-0.188297 11.383804-0.127919 128.052447-0.127919 128.052447l136.681379 0c66.091354 0 119.548365 53.521481 119.548365 119.425562L959.770129 650.917666C959.771152 716.943526 906.313119 770.523338 840.221764 770.523338zM319.513011 386.373161c-35.327248 0-64.024177 28.57208-64.024177 64.0252 0 35.449027 28.696929 64.024177 64.024177 64.024177 35.327248 0 64.026223-28.57515 64.026223-64.024177C383.539234 414.94524 354.841282 386.373161 319.513011 386.373161zM511.590658 386.373161c-35.327248 0-64.0252 28.57208-64.0252 64.0252 0 35.449027 28.697952 64.024177 64.0252 64.024177 35.327248 0 64.026223-28.57515 64.026223-64.024177C575.616881 414.94524 546.917906 386.373161 511.590658 386.373161zM703.668305 386.373161c-35.324178 0-64.024177 28.57208-64.024177 64.0252 0 35.449027 28.699999 64.024177 64.024177 64.024177 35.326224 0 64.026223-28.57515 64.026223-64.024177C767.694528 414.94524 738.993506 386.373161 703.668305 386.373161z"  horiz-adv-x="1025" />

    
    <glyph glyph-name="iconfontcheck" unicode="&#58907;" d="M864.41 605.76333333c-12.06 11.31-31.08 10.77-42.39-1.32L421.94 178.47333332999995l-218.55 215.34C191.57 405.45333333 172.58 405.33333333 160.94 393.51333333c-11.64-11.79-11.49-30.81 0.33-42.42l240.45-236.88c0.09-0.09 0.21-0.12 0.3-0.21 0.09-0.09 0.12-0.21 0.21-0.3 1.89-1.8 4.17-2.82 6.36-4.02 1.08-0.63 2.01-1.56 3.15-2.01 3.54-1.38 7.29-2.1 11.01-2.1 3.93 0 7.86 0.78 11.52 2.34 1.23 0.51 2.19 1.56 3.33 2.22 2.25 1.32 4.59 2.43 6.51 4.38 0.09 0.09 0.12 0.24 0.21 0.33 0.06 0.09 0.18 0.12 0.27 0.21l421.11 448.32C877.1 575.40333333 876.47 594.39333333 864.41 605.76333333z"  horiz-adv-x="1024" />

    
    <glyph glyph-name="xin" unicode="&#58952;" d="M708.83193359 753.140625c-77.43515625 0-149.44394531-75.29150391-196.82666015-131.80253906C464.63398437 677.86494141 392.64716797 753.140625 315.16806641 753.140625 175.56787109 753.140625 62 643.5858398400001 62 508.92773438c0-80.3390625 40.67841797-136.70068359 73.37109375-181.98369141 95.03085937-131.53271484 333.97207031-295.21054688 344.09267578-302.11259766 9.74619141-6.64277344 21.15351562-9.97207031 32.51953125-9.97207031 11.40029297 0 22.78564453 3.33105469 32.51953125 9.97207031 10.13291016 6.90205078 249.09521484 170.57988281 344.09267578 302.11259766C921.30927734 372.22705078 962 428.58867188 962 508.92773438 961.99824219 643.5858398400001 848.43125 753.140625 708.83193359 753.140625z"  horiz-adv-x="1024" />

    
    <glyph glyph-name="logout" unicode="&#58955;" d="M118.10443606 92.72888889000001l0 582.54222222c0 43.84954141 35.58803342 79.43757597 79.43757596 79.43757596l344.22949547 0L541.77150749 807.66707029l-370.70868708 0c-58.51901383 0-105.91676757-47.39775374-105.91676757-105.91676757l0-635.50060658c0-58.51901383 47.39775374-105.91676757 105.91676757-105.91676757l370.70868708 0 0 52.95838436-344.22949547 0C153.63951161 13.291312930000004 118.10443606 48.87934748999999 118.10443606 92.72888889000001zM959.56019769 402.74726798l-187.26084494 187.26084495c-10.32688526 10.32688526-27.11469283 10.32688526-37.44157696 0-10.32688526-10.32688526-10.32688526-27.11469283 0-37.44157696l142.03438535-142.03438536L356.41716395 410.53215061c-14.61651342 0-26.47919161-11.86267819-26.47919161-26.4791916s11.86267819-26.47919161 26.47919161-26.47919162l520.47499605 0-142.03438535-142.03438534c-10.32688526-10.32688526-10.32688526-27.11469283 0-37.44157696 10.32688526-10.32688526 27.11469283-10.32688526 37.44157696 0l187.26084495 187.26084494C969.88708182 375.63257515 969.88708182 392.36742485 959.56019769 402.74726798z"  horiz-adv-x="1024" />

    
    <glyph glyph-name="qq" unicode="&#58900;" d="M512-66C263.46875029-66 62 135.46875029 62 384 62 632.53124971 263.46875029 834 512 834 760.53124971 834 962 632.53124971 962 384 962 135.46875029 760.53124971-66 512-66ZM671.37499971 430.87499971C667.5875 448.48124971 662.00000029 458.99999971 662.00000029 458.99999971 662.00000029 458.99999971 662.24375 484.78125029 633.87500029 543.37499971 605.50624971 601.96875 521.37500029 609 521.37500029 609L512 609C512 609 427.86874971 601.96875 399.5 543.37499971 371.13125029 484.78125029 371.375 458.99999971 371.375 458.99999971 371.375 458.99999971 365.78750029 448.48124971 361.99999971 430.87499971 358.2125 413.26874971 361.99999971 402.74999971 361.99999971 402.74999971 361.99999971 402.74999971 313.94375 353.74687529000005 315.125 318.37499971 316.30625 283.00312499999995 324.98749971 260.475 343.25 280.87500029 361.51250029 301.27499971 361.99999971 299.625 361.99999971 299.625 361.99999971 299.625 361.68125029 284.39062529 371.375 271.5 381.06874971 258.60937471 390.12499971 252.75000029 390.12499971 252.75000029 390.12499971 252.75000029 340.95312529 228.40312471000004 352.62500029 196.50000029 364.29687529 164.59687499999995 400.26875029 158.74687500000005 427.625 159 454.98124971 159.25312499999995 512 177.74999971 512 177.74999971L521.37500029 177.74999971C521.37500029 177.74999971 578.39374971 159.25312499999995 605.75000029 159 633.10625 158.74687500000005 669.078125 164.59687499999995 680.75 196.50000029 692.421875 228.40312471000004 643.24999971 252.75000029 643.24999971 252.75000029 643.24999971 252.75000029 652.30624971 258.60937471 662.00000029 271.5 671.69375 284.39062529 671.37499971 299.625 671.37499971 299.625 671.37499971 299.625 671.8625 301.27499971 690.12500029 280.87500029 708.38749971 260.475 717.06875029 283.00312499999995 718.25000029 318.37499971 719.43125029 353.74687529000005 671.37499971 402.74999971 671.37499971 402.74999971 671.37499971 402.74999971 675.16250029 413.26874971 671.37499971 430.87499971Z"  horiz-adv-x="1024" />

    
    <glyph glyph-name="changjianwenti" unicode="&#58953;" d="M933.966451 385.010003c0 233.483682-189.238992 422.727791-422.711418 422.727791s-422.716534-189.244108-422.716534-422.727791c0-233.428424 189.244108-422.700161 422.716534-422.700161 48.714492 0 95.464235 8.331759 139.006937 23.496134l243.444545-23.496134-79.32772 128.23664C888.35667 166.67739300000005 933.966451 270.50920299999996 933.966451 385.010003L933.966451 385.010003zM573.644989 95.26494600000001L468.106304 95.26494600000001l0 97.202832 105.538685 0L573.644989 95.26494600000001 573.644989 95.26494600000001zM615.303784 353.55050100000005c-37.063127-24.084535-54.637388-51.857065-52.769854-83.317591l0-19.446911-83.321684 0L479.212246 273.008116c-1.863441 55.54506 24.042579 102.758362 77.767178 141.641951 51.813063 35.151591 74.985832 72.210625 69.430302 111.094214-5.54939 44.432978-33.327036 68.474534-83.316567 72.205509-66.656119 1.824555-105.538685-31.502481-116.650767-99.978039l-88.871073 24.991184c24.040533 109.225657 95.339392 161.083745 213.851553 155.532309 103.671151-5.554506 160.127977-57.412594 169.413458-155.532309C722.661907 461.864392 687.514409 405.364587 615.303784 353.55050100000005L615.303784 353.55050100000005zM615.303784 353.55050100000005"  horiz-adv-x="1024" />

    
    <glyph glyph-name="yaochi-copy" unicode="&#58891;" d="M337.90159369-9.247831420000011L116.50878724-9.247831420000011 116.50878724 148.01652026 393.57428686 450.16156808 429.8241043 416.91399253 165.70666219 128.87031226 165.70666219 39.95083377000003 288.70292849 39.95083377000003 288.70292849 138.34737313000005 400.32419314 138.34737313000005 540.61694537 301.95374279 577.97185334 269.93141103000005 422.95325451 89.14949819000003 337.90159369 89.14949819000003ZM657.69093872 285.94257691999996l0 49.19866441c108.49807927 0 196.78201147 88.28314195 196.78201147 196.79386896S766.18980746 728.72818826 657.69093872 728.72818826c-108.51072624 0-196.79386898-88.28314195-196.79386897-196.79386898l-49.19866442 0c0 135.64394182 110.34780132 245.99174314 245.99174315 245.99174315S903.67082436 667.57905213 903.67082436 531.9351103 793.33487977 285.94257691999996 657.69093872 285.94257691999996zM657.69093872 433.5377807c-54.25536311 0-98.39653936 44.14196649-98.39653936 98.39653936s44.14196649 98.39653936 98.39653936 98.39653936 98.38468186-44.14196649 98.38468186-98.39653936S711.94630183 433.5377807 657.69093872 433.5377807zM657.69093872 581.13298448c-27.13400583 0-49.19866442-22.06465938-49.19866442-49.19866442s22.06465938-49.19866442 49.19866442-49.19866441c27.12135807 0 49.18680768 22.06465938 49.18680768 49.19866441S684.81229602 581.13298448 657.69093872 581.13298448z"  horiz-adv-x="1024" />

    
    <glyph glyph-name="shouji1" unicode="&#58906;" d="M509.835707 193.210699m-34.844599 0a34.051 34.051 0 1 0 69.689199 0 34.051 34.051 0 1 0-69.689199 0ZM553.129746 617.723136c0 1.877767-1.521656 3.399423-3.399423 3.399423L465.454918 621.122559c-1.877767 0-3.399423-1.521656-3.399423-3.399423l0-2.410909c0-1.877767 1.521656-3.399423 3.399423-3.399423l84.275405 0c1.877767 0 3.399423 1.521656 3.399423 3.399423L553.129746 617.723136zM640.228453 591.446679 379.517663 591.446679c-6.801916 0-13.651928-5.859451-13.651928-11.645225L365.865735 263.777895c0-5.785773 6.850012-8.998955 13.651928-8.998955l260.71079 0c6.80294 0 11.139711 3.213181 11.139711 8.998955L651.368164 579.801455C651.367141 585.587228 647.030369 591.446679 640.228453 591.446679zM511.62547 831.006753c-246.710938 0-446.708971-199.999057-446.708971-446.708971S264.914532-62.411189 511.62547-62.411189s446.708971 199.999057 446.708971 446.708971S758.336408 831.006753 511.62547 831.006753zM676.949796 154.394648c0-14.688537-9.93221-26.5067-23.119557-26.5067L369.682667 127.887948c-13.187347 0-25.307386 11.818163-25.307386 26.5067L344.375282 614.495628c0 14.688537 12.120039 27.092032 25.307386 27.092032l284.147572 0c13.187347 0 23.119557-12.404518 23.119557-27.092032L676.949796 154.394648z"  horiz-adv-x="1024" />

    
    <glyph glyph-name="shoucang1" unicode="&#58950;" d="M584.6776475 18.352941559999977C557.06352969 32.86588218999998 512.08470594 32.781176250000044 484.64 18.352941559999977L290.60705844-83.66117625000004C235.40705844-112.68705843999999 199.2376475-86.14588218999995 209.74117625-24.903529690000028L246.78588219 191.15294156000004C252.06588219 221.92941186999997 238.08941187 264.64941187 215.86823563 286.30588219000003L58.90823562 439.31294156C14.24 482.85176438 28.32941188 525.45882375 89.7976475 534.38117625L306.72941187 565.8917643699999C337.61882375 570.38117625 373.92941187 596.89411781 387.68 624.70588219L484.69647031 821.28C512.31058812 877.21411781 557.17647031 876.98823562 584.64941187 821.28L681.66588219 624.70588219C695.47294156 596.7247059399999 731.92470594 570.35294156 762.61647031 565.8917643699999L979.54823563 534.38117625C1041.27058813 525.4023525 1054.93647031 482.6823525 1010.4376475 439.31294156L853.4776475 286.30588219000003C831.11529406 264.50823562000005 817.30823563 221.73176437999996 822.56 191.15294156000004L859.60470594-24.903529690000028C870.13647031-86.37176437000005 833.71294156-112.57411780999996 778.73882375-83.66117625000004L584.6776475 18.352941559999977 584.6776475 18.352941559999977Z"  horiz-adv-x="1085" />

    
    <glyph glyph-name="shanchuguanbiquxiaowubiankuang" unicode="&#59402;" d="M803.6 118.86666665999996L523.4 400.26666666l277.8 276c12 12 12 31.2 0 42.6-12 12-31.2 12-43.2 0L480.2 443.46666666 205.4 718.86666666c-12 12-31.2 12-42.6 0s-12-31.2 0-42.6l274.2-275.4-283.8-282c-12-12-12-31.2 0-42.6 12-12 31.2-12 43.2 0l283.8 281.4 280.8-281.4c12-12 31.2-12 42.6 0C815 87.66666666000003 815 106.86666665999996 803.6 118.86666665999996z"  horiz-adv-x="1024" />

    
    <glyph glyph-name="icon-pencil" unicode="&#58992;" d="M333.6766131 38.391141449999964L166.14032522 205.92659958000002l463.0956894 463.09983728 167.53545813-167.53545813L333.6766131 38.391141449999964 333.6766131 38.391141449999964zM333.6766131 38.391141449999964M904.75716689 688.01187478L815.75276196 777.01130127c-21.68673982 21.68673982-58.37997382 20.15605783-81.95414035-3.42225742L650.18188754 689.9723097799999l167.53545813-167.53545812L901.33407974 606.05275681C924.90326865 629.6319009700001 926.43975882 666.32596472 904.75716689 688.01187478L904.75716689 688.01187478zM904.75716689 688.01187478M150.58212152 179.57065603L91.34928043-36.39160674000004l215.93903329 59.23367083L150.58212152 179.57065603zM150.58212152 179.57065603"  horiz-adv-x="1024" />

    
    <glyph glyph-name="shouye" unicode="&#58905;" d="M1067.26839945 376.69377539000004L581.11441859 831.69028359 94.96043773 378.02931914C85.45450237 369.15187646000004 84.92028382 354.22519893000003 93.81344046 344.71926356999995 102.69088489 335.2133291 117.61756067 334.67910879 127.12349602 343.57226543L581.0829933 767.17561875 1035.05820276 342.28385918000004C1039.61476829 338.0258291 1045.39689036 335.92038018000005 1051.16330023 335.92038018000005 1057.44821643 335.92038018000005 1063.73313265 338.41863604 1068.36825833 343.38371982 1077.26141497 352.88965518 1076.77433479 367.80061875 1067.26839945 376.69377539000004L1067.26839945 376.69377539000004ZM918.9129514 367.34496211C905.90317454 367.34496211 895.34451604 356.78630185 895.34451604 343.77652763000003L895.34451604-17.606156250000026 706.79702971-17.606156250000026 706.79702971 233.79049307000002 455.40038216 233.79049307000002 455.40038216-17.606156250000026 266.85289583-17.606156250000026 266.85289583 343.77652763000003C266.85289583 356.78630185 256.30994955 367.34496211 243.28446047 367.34496211 230.25897141 367.34496211 219.71602425 356.78630185 219.71602425 343.77652763000003L219.71602425-64.74302607000004 502.53725286-64.74302607000004 502.53725286 186.65362059999995 659.66015901 186.65362059999995 659.66015901-64.74302607000004 942.48138851-64.74302607000004 942.48138851 343.77652763000003C942.48138851 356.78630185 931.92272825 367.34496211 918.9129514 367.34496211L918.9129514 367.34496211ZM753.9339013 705.1592080099999L895.34451604 705.1592080099999 895.34451604 579.46088378C895.34451604 566.4353956 905.90317454 555.89244932 918.9129514 555.89244932 931.92272825 555.89244932 942.48138851 566.4353956 942.48138851 579.46088378L942.48138851 752.29607959 753.9339013 752.29607959C740.92412445 752.29607959 730.36546682 741.7531324199999 730.36546682 728.72764336 730.36546682 715.70215518 740.92412445 705.1592080099999 753.9339013 705.1592080099999L753.9339013 705.1592080099999Z"  horiz-adv-x="1152" />

    
    <glyph glyph-name="tuichu" unicode="&#58962;" d="M497.3-16.67999999999995c-52.02 0-102.54 10.17-150.06 30.33-45.93 19.38-87.12 47.16-122.52 82.56-35.4 35.4-63.18 76.65-82.62 122.55C122 266.28 111.8 316.77 111.8 368.82000000000005c0 62.28 15.27 124.11 44.13 178.89 27.9 52.92 68.43 99.39 117.24 134.37 13.56 9.72 32.4 6.57 42.09-6.96 9.69-13.53 6.6-32.34-6.96-42C267.05 603.48 232.82 564.3 209.3 519.63c-24.69-46.83-37.2-97.56-37.2-150.81 0-86.88 33.84-168.57 95.28-229.98 61.41-61.44 143.07-95.28 229.92-95.28 86.82 0 168.51 33.84 229.95 95.28 61.44 61.41 95.25 143.1 95.25 229.98 0 53.19-12.48 104.01-37.2 150.81-23.52 44.64-57.78 83.85-99.03 113.43-13.53 9.66-16.68 28.47-6.96 42 9.72 13.53 28.53 16.71 42.06 6.96 48.84-34.98 89.43-81.45 117.3-134.37 28.89-54.78 44.16-116.61 44.16-178.89 0-52.05-10.2-102.54-30.33-150.09-19.41-45.9-47.22-87.15-82.62-122.55-35.4-35.4-76.59-63.15-122.52-82.62C599.81-6.539999999999964 549.32-16.67999999999995 497.3-16.67999999999995L497.3-16.67999999999995zM506.36 401.64c-16.65 0-30.15 13.44-30.15 30.12L476.21 788.8199999999999c0 16.62 13.5 30.15 30.15 30.15s30.18-13.53 30.18-30.15l0-357.06C536.54 415.08 523.01 401.64 506.36 401.64L506.36 401.64zM506.36 401.64"  horiz-adv-x="1024" />

    
    <glyph glyph-name="zan" unicode="&#59040;" d="M872.75 348c19.5 30 26.25 58.5 20.25 84-6.75 26.25-26.25 45.75-41.25 54.75-12.75 7.5-27.75 11.25-42.75 11.25L691.25 498c-18 0-34.5 9-44.25 23.25-9.75 15-12 33-4.5 49.5 14.25 32.25 20.25 80.25 21 97.5 0 55.5-13.5 94.5-39 112.5-27.75 20.25-63 11.25-73.5 7.5-24.75-7.5-30.75-30.75-38.25-77.25-1.5-10.5-3.75-21-6-31.5C492.5 612 459.5 549 412.25 499.5c-25.5-26.25-52.5-48.75-81-65.25-9.75-5.25-19.5-10.5-30-14.25l0-385.5c37.5-1.5 68.25-11.25 102.75-22.5 53.25-17.25 119.25-38.25 243-38.25l1.5 0c62.25 0 108 14.25 132.75 40.5 23.25 24.75 22.5 53.25 22.5 55.5-1.5 11.25 4.5 21.75 14.25 27.75 19.5 11.25 30.75 25.5 34.5 40.5 6 24-8.25 48-9 49.5-9 13.5-5.25 30.75 8.25 40.5 20.25 13.5 31.5 27.75 33.75 43.5 3.75 21-10.5 39.75-11.25 41.25C866 324 866 337.5 872.75 348zM123.5 402.75l0-360c0-4.5-4.5-20.25 0-20.25L219.5 22.5 219.5 408l-88.5 2.25C126.5 410.25 123.5 407.25 123.5 402.75z"  horiz-adv-x="1024" />

    
    <glyph glyph-name="ai-top" unicode="&#58970;" d="M146.9158535 779.5078125h730.16826922v-121.69471154h-730.16826922V779.5078125zM877.0841465 231.88159274999998h-182.54206732v-243.38942308h-365.0841346V231.88161058000003h-182.5420673l365.0841465 365.0841465L877.0841465 231.88159274999998z"  horiz-adv-x="1024" />

    
    <glyph glyph-name="mima54" unicode="&#58995;" d="M503.15155229 108.00992597000004c-61.00771954 0-110.48917106 49.94715989-110.48917106 111.30416014 0 61.35700025 49.59787918 111.30416014 110.48917106 111.30416015 61.00771954 0 110.48917106-49.94715989 110.48917105-111.30416015C613.75715101 157.95708473000002 564.15927182 108.00992597000004 503.15155229 108.00992597000004zM503.15155229 267.63126783999996c-26.3124901 0-47.6186203-21.65541205-47.61862031-48.43360939s21.42255787-48.43360939 47.61862031-48.43360938c26.3124901 0 47.6186203 21.65541205 47.6186203 48.43360938S529.46404238 267.63126783999996 503.15155229 267.63126783999996zM821.81210226 483.83610539l-32.7159717 0L789.09613056 545.89166819c0 78.35533426-29.45601763 152.40287232-83.12883883 208.28780544-53.90567538 56.23421497-125.50824733 87.32020963-201.41861546 87.32020964-76.02679581 0-147.51294009-30.96956701-201.41861547-87.32020964-53.55639467-55.88493426-83.12883883-129.93247118-83.12883883-208.28780544l0-62.05556166-35.27736434 0c-34.92808363 0-63.21983147-28.29174784-63.21983146-63.21983147l0-409.3571402c0-34.92808363 28.29174784-63.21983147 63.21983146-63.21983147l637.20467343 0c34.92808363 0 63.21983147 28.29174784 63.21983147 63.21983147L885.14836025 420.49984739C885.03193373 455.42793102 856.74018589 483.83610539 821.81210226 483.83610539zM282.75534393 545.89166819c0 62.17198933 23.28538909 120.61831509 65.66479758 164.74412829 41.91370013 43.77653134 97.44935367 67.87690951 156.12853362 67.87690951 58.67918109 0 114.09840697-24.10037817 156.12853362-67.87690951 42.26298083-44.12581205 65.66479758-102.68856547 65.66479758-164.74412829l0-62.05556166L282.75534393 483.83610539 282.75534393 545.89166819zM822.16138297 11.142707200000018c0-0.11642653 0-0.11642653 0-0.11642653 0-0.11642653-0.23285419-0.23285419-0.23285419-0.23285418 0 0-0.11642653 0-0.11642652 0L184.60742883 10.793426490000002c-0.11642653 0-0.11642653 0-0.11642652 0 0 0 0 0 0 0-0.11642653 0-0.23285419 0.23285419-0.23285418 0.23285418 0 0 0 0.11642653 0 0.11642653L184.25814813 420.49984739c0 0.11642653 0 0.11642653 0 0.11642653 0 0.11642653 0.23285419 0.23285419 0.23285418 0.23285419 0 0 0.11642653 0 0.11642652 0l637.20467343 0c0.11642653 0 0.11642653 0 0.11642652 0 0 0 0 0 0 0 0.11642653 0 0.23285419-0.23285419 0.23285419-0.23285419 0 0 0-0.11642653 0-0.11642653L822.16138297 11.142707200000018z"  horiz-adv-x="1024" />

    
    <glyph glyph-name="shouji2" unicode="&#58991;" d="M512.387 116.07c-24.834 0-45.039-20.201-45.039-45.041 0-24.834 20.205-45.036 45.039-45.036 24.838 0 45.043 20.202 45.043 45.036C557.43 95.869 537.225 116.07 512.387 116.07L512.387 116.07zM512.387 116.07M735.214 825 289.563 825c-37.495 0-67.994-30.501-67.994-67.995l0-747.902c0-37.494 30.5-67.994 67.994-67.994l445.651 0c37.494 0 67.994 30.5 67.994 67.994L803.208 757.005C803.208 794.499 772.708 825 735.214 825L735.214 825zM289.563 779.672l445.651 0c12.5 0 22.667-10.167 22.667-22.667l0-560.323L266.897 196.682 266.897 757.005C266.897 769.505 277.063 779.672 289.563 779.672L289.563 779.672zM735.214-13.561 289.563-13.561c-12.5 0-22.666 10.169-22.666 22.664L266.897 147.475l490.983 0 0-138.371C757.881-3.396 747.714-13.561 735.214-13.561L735.214-13.561zM735.214-13.561"  horiz-adv-x="1024" />

    
    <glyph glyph-name="xiala" unicode="&#59099;" d="M512 174.65700406999997l305.5203706 381.88473969L206.4796294 556.5417437599999 512 174.65700406999997"  horiz-adv-x="1024" />

    
    <glyph glyph-name="mima" unicode="&#58956;" d="M768.9216 473.27232 372.06016 473.27232C378.88 530.78016 329.37984 764.57984 512.2048 770.27328c173.83424 6.59456 146.78016-213.34016 146.78016-213.34016l85.13536-0.57344c0 0 24.73984 294.4-231.91552 295.8336C232.09984 837.98016 297.82016 518.81984 289.28 473.27232c1.98656 0 4.56704 0 7.29088 0-55.88992 0-101.21216-45.34272-101.21216-101.21216l0-337.38752c0-55.88992 45.34272-101.21216 101.21216-101.21216l472.35072 0c55.88992 0 101.21216 45.34272 101.21216 101.21216L870.13376 372.06016C870.13376 427.9296 824.79104 473.27232 768.9216 473.27232zM566.4768 178.97472l0-76.84096c0-18.57536-15.1552-33.73056-33.73056-33.73056-18.57536 0-33.73056 15.1552-33.73056 33.73056l0 76.84096c-20.09088 11.69408-33.73056 33.21856-33.73056 58.12224 0 37.2736 30.208 67.4816 67.4816 67.4816 37.2736 0 67.4816-30.208 67.4816-67.4816C600.22784 212.19328 586.58816 190.6688 566.4768 178.97472z"  horiz-adv-x="1024" />

    
    <glyph glyph-name="weibiaoti553" unicode="&#58937;" d="M504.17535545 506.90531442c-84.48124928 0-153.2270501-68.70970823-153.2270501-153.2270501 0-84.45447054 68.7469659-153.2270501 153.2270501-153.2270501 84.48590621 0 153.2270501 68.77258069 153.2270501 153.2270501C657.40240555 438.19560619 588.66126165 506.90531442 504.17535545 506.90531442zM856.59931762 690.7160667l-153.2270501 0-91.93739491 93.14360434-214.51787037 0-91.93739491-93.14360434-153.2270501 0c-50.78422187 0-85.17400462-25.79262805-85.17400462-76.55007118l0-520.97662862c0-50.75744313 34.38978275-108.03610169 85.17400462-108.03610169l704.84792434 0c50.79120782 0 99.49832647 57.2786597 99.49832646 108.03610169l0 520.97662862C956.09764409 664.9222747 907.3905243 690.7160667 856.59931762 690.7160667zM504.17535545 108.51149026999997c-135.18164082 0-245.16560896 110.01656775-245.16560896 245.16560896 0 135.21540551 109.98396814 245.16560896 245.16560896 245.16560896 135.18047687 0 245.16560896-109.95136739 245.16560896-245.16560896C749.34096441 218.52805803 639.35583232 108.51149026999997 504.17535545 108.51149026999997z"  horiz-adv-x="1024" />

    
    <glyph glyph-name="jilu" unicode="&#58889;" d="M797.3778125 643.58479167l-78.4696875 0 0 38.0784375c0 25.2309375-20.5275 45.7575-45.75937501 45.7575l-55.33031249 0c-7.179375 52.5534375-52.36124999 93.17624999-106.8553125 93.17625-54.493125 0-99.6740625-40.6228125-106.85437499-93.17625L348.78124999 727.42072917c-25.231875 0-45.7621875-20.5265625-45.76218749-45.7575l0-38.0784375-78.46781249 0c-30.515625 0-55.3453125-24.826875-55.34531251-55.3453125l0-597.53156249c0-30.515625 24.8278125-55.344375 55.34531251-55.34437501l572.82656249 0c30.5165625 0 55.34624999 24.82874999 55.34625 55.34437501L852.7240625 588.23947917C852.7240625 618.75697917 827.8953125 643.58479167 797.3778125 643.58479167zM698.5053125 83.45104167l-373.828125 0 0 44.145 373.828125 0L698.5053125 83.45104167zM698.5053125 224.16416667l-373.828125 0 0 44.1459375 373.828125 0L698.5053125 224.16416667zM698.5053125 364.87635417l-373.828125 0 0 44.146875 373.828125 0L698.5053125 364.87635417z"  horiz-adv-x="1024" />

    
    <glyph glyph-name="tuijian" unicode="&#58922;" d="M326.169 727.7h42.526c7.573 0 13.981 6.407 13.981 13.981s-6.407 13.981-13.981 13.981h-42.526c-7.573 0-13.981-6.407-13.981-13.981 0-8.156 6.407-13.981 13.981-13.981v0zM326.169 727.7zM439.764 727.7h113.013c7.573 0 13.981 6.407 13.981 13.981s-6.407 13.981-13.981 13.981h-113.013c-7.573 0-13.981-6.407-13.981-13.981 0-8.156 5.825-13.981 13.981-13.981v0zM439.764 727.7zM597.634 255.841l-41.943 6.407-18.059 39.613c-4.66 9.903-14.563 16.311-25.632 16.311s-20.972-6.407-25.632-16.311l-18.059-39.613-41.943-6.407c-10.485-1.747-19.223-8.738-22.719-19.223-3.495-9.903-0.582-21.554 6.991-29.127l30.875-30.875-9.903-44.855c-2.331-11.069 1.747-22.719 11.069-29.127 4.66-3.495 10.485-5.243 16.311-5.243 5.243 0 9.903 1.165 14.563 4.078l39.030 23.301 41.943-23.884c4.66-2.331 9.321-3.495 13.981-3.495 6.407 0 12.234 1.747 17.476 5.825 9.321 6.991 12.816 18.641 9.903 29.71l-12.234 43.691 30.292 30.292c7.573 7.573 10.485 18.641 6.991 29.127-4.078 11.069-12.816 18.059-23.301 19.807v0zM556.855 191.179c-2.913-2.913-4.66-7.573-3.495-11.651l14.563-53.594-49.516 27.962c-2.331 1.165-4.66 1.747-6.407 1.747-2.331 0-4.66-0.582-6.407-1.747l-47.186-27.962 12.234 53.594c0.582 4.078-0.582 8.738-3.495 11.651l-36.7 36.7 49.516 7.573c4.66 0.582 8.156 3.495 10.485 7.573l21.554 47.186 21.554-47.186c1.747-4.078 5.825-6.991 10.485-7.573l49.516-7.573-36.7-36.7zM556.855 191.179zM693.754 421.283l46.604 45.438c5.243 5.243 6.407 12.816 6.407 20.389v128.159c42.526 14.563 77.478 59.42 77.478 110.1 0 62.332-51.264 115.343-113.013 115.343h-398.459c-62.332 0-112.431-53.011-112.431-115.343 0-50.098 36.117-94.955 78.643-110.1v-128.159c0-7.573 5.825-15.146 11.069-20.389l44.273-41.36c-62.914-51.264-103.693-129.907-103.693-217.871 0-154.956 125.829-280.785 280.785-280.785s280.785 125.829 280.785 280.785c0 85.634-38.448 161.947-98.45 213.793v0zM590.643 477.789v136.315h99.033v-114.761l-43.108-44.273c-17.476 9.321-41.943 16.894-55.924 22.719v0zM562.098 614.105v-129.907c-13.981 2.913-32.622 4.66-49.516 4.66s-34.953-1.747-49.516-4.66v129.907h99.033zM256.847 727.7c0 31.457 25.050 56.507 55.924 56.507h390.303l4.66 0.582c30.875 0 57.671-28.545 57.671-59.42s-23.884-54.176-54.759-54.176h-397.876c-30.875-0.582-55.924 25.050-55.924 56.507v0zM335.49 499.343v114.761h99.033v-136.315c-13.981-5.243-36.117-12.234-52.429-20.972l-46.604 42.526zM511.418-16.207c-124.081 0-224.278 100.197-224.278 224.278s100.197 224.278 224.278 224.278c124.081 0 224.278-100.197 224.278-224.278s-100.197-224.278-224.278-224.278v0zM511.418-16.207zM475.883 358.368c0.582 0 0.582 0 1.165 0 3.495 0.582 6.991 0.582 10.485 0.582 7.573 0 13.981 6.407 13.981 13.981s-6.407 13.981-13.981 13.981c-4.078 0-8.738 0-12.816-0.582-7.573-0.582-13.398-7.573-12.816-15.146 0.582-6.991 6.991-12.816 13.981-12.816v0zM475.883 358.368zM435.104 347.3c6.991 3.495 10.485 11.651 6.991 18.641s-11.651 10.485-18.641 6.991c-55.342-25.632-90.877-80.974-90.877-141.557 0-7.573 6.407-13.981 13.981-13.981 7.573 0 13.981 6.407 13.981 13.981 0 50.098 29.127 95.537 74.565 115.926v0zM435.104 347.3z"  horiz-adv-x="1024" />

    
    <glyph glyph-name="ai54" unicode="&#59052;" d="M511.90126759 807.36872889c-234.76286623 0-426.82994476-192.06211235-426.82994476-426.83242906 0-234.76410778 192.0658382-426.82994476 426.82994476-426.82994477 234.70946289 0 426.77654262 192.06459543 426.77654262 426.82994477C938.67656867 615.30661652 746.61073169 807.36872889 511.90126759 807.36872889M725.27960352 226.89282032999995l-59.70877554-59.73982383-153.66956039 153.6459638-153.61367397-153.6459638-59.83793486 59.73982383 153.68943116 153.6434795-153.68943116 153.64596379 59.83793486 59.73982383 153.61367397-153.6459638 153.66956039 153.6459638 59.70877554-59.73982383-153.61367396-153.64596379L725.27960352 226.89282032999995z"  horiz-adv-x="1024" />

    
    <glyph glyph-name="weixin" unicode="&#59059;" d="M571.59055127 384.11563594c-10.25511768 0-20.51473536-9.52350997-20.51473535-21.24724394 0-9.52530908 10.25421855-19.05061904 20.51473535-19.05061905 15.39167607 0 26.38110234 9.52530908 26.38110235 19.05061905C597.97165362 374.59122597 586.98222734 384.11563594 571.59055127 384.11563594L571.59055127 384.11563594zM504.17637823 483.04386972c16.12058467 0 26.38110234 10.25511768 26.38110234 25.64769376 0 16.12148467-10.25961768 25.64589463-26.38110235 25.64589462-15.38807607 0-30.04454443-9.52530908-30.04454444-25.64589462C474.13093379 493.2980874 488.78830127 483.04386972 504.17637823 483.04386972L504.17637823 483.04386972zM512.23667012 833.50776152c-248.39595088 0-449.75747989-201.36152988-449.75747989-449.75747988 0-248.39415088 201.36152988-449.75568076 449.75747989-449.75568076 248.39415088 0 449.75568076 201.36152988 449.75568076 449.75568076C961.99325088 632.14623164 760.63172099 833.50776152 512.23667012 833.50776152L512.23667012 833.50776152zM427.23599521 269.80562432c-27.11541094 0-46.90033769 4.39325068-72.54713144 11.72373486l-74.01034864-37.37502773 21.25444307 63.02272236c-52.02789609 36.63532089-82.80764912 82.80135-82.80764912 139.22609677 0 99.65804239 93.79617539 175.8677168 208.11158613 175.86771681 101.12215957 0 191.25489287-60.08908886 208.84049473-145.0942629-7.32688418 1.46951631-13.92395977 2.1984249-19.78492676 2.19842491-99.65804239 0-176.59752539-74.74105722-176.59752539-164.87379053 0-15.38627695 2.1984249-29.30843672 5.862767-43.9667042C439.69493779 269.80562432 433.09786309 269.80562432 427.23599521 269.80562432L427.23599521 269.80562432zM732.80539971 197.99370059l14.65286836-52.7631047-55.69043906 31.50866163c-21.24904395-4.39325068-41.7682793-10.98942627-63.01732325-10.98942627-98.19392607 0-175.8677168 67.41417305-175.8677168 150.94983164 0 83.53655771 77.67469072 150.95163076 175.8677168 150.95163076 93.06096768 0 176.59752539-67.41507305 176.59752539-150.95163076C805.34803115 269.80562432 773.83937041 228.03734501999998 732.80539971 197.99370059L732.80539971 197.99370059zM359.08661445 534.3374581c-15.38807607 0-31.50866162-9.52530908-31.50866162-25.64589462 0-15.39257607 16.12058467-25.65219375 31.50866162-25.65219376 14.65736748 0 26.38110234 10.25961768 26.38110235 25.65219376C385.4677168 524.81214815 373.74398193 534.3374581 359.08661445 534.3374581L359.08661445 534.3374581zM686.64026973 384.11563594c-10.99392539 0-20.51923535-9.52350997-20.51923535-21.24724394 0-9.52530908 9.52530908-19.05061904 20.51923534-19.05061905 14.65286836 0 25.64589463 9.52530908 25.64589463 19.05061905C712.28616435 374.59122597 701.29313809 384.11563594 686.64026973 384.11563594L686.64026973 384.11563594zM686.64026973 384.11563594"  horiz-adv-x="1024" />

    
    <glyph glyph-name="duihua" unicode="&#58980;" d="M916.21159472 809.6598023399999L310.03698096 809.6598023399999c-23.62788018 0-44.89486172-21.66001435-44.89486172-44.80582148l0-425.65980234c0-23.10353613 21.26608154-44.80492237 44.89486172-44.80492237l404.10771503 0 102.69867042-86.50784795c7.74195117-7.61243906 18.42131075-12.29556357 30.23390127-12.29556357 0.17628047 0 0.35076182 0.08993935 0.52704228 0.08993935 11.59403906 0.13131123 22.09621904 4.72449638 29.70865723 12.20562422 0.17448135 0.17538135 0.3066917 0.39393281 0.48117393 0.52704229 1.72862842 1.79248447 3.34753067 3.63173731 4.74608232 5.64367324 0.5468291 0.83103662 0.91827773 1.74931435 1.42193584 2.5812501 0.87600586 1.4866919 1.81766778 2.93111279 2.51739316 4.55091416 0.32737763 0.74379551 0.48117393 1.57573125 0.74379551 2.36269776 0.65565527 1.79428359 1.35628066 3.58766719 1.75021348 5.46919188 0.56841504 2.75753057 0.87600586 5.55643301 0.87600586 8.44527393l0 69.79178145 28.50527373 0c23.60629511 0 42.74891631 18.7253042 42.7489163 41.87560869L961.10375732 767.78509365C961.10555645 790.93090078 939.81698984 809.6598023399999 916.21159472 809.6598023399999zM422.29347119 540.8212752c-24.81057862 0-44.91644677 20.08518222-44.91644678 44.8076206 0 24.76560849 20.10496904 44.80582148 44.91644678 44.80582149 24.78809355 0 44.89396172-20.04021299 44.89396172-44.80582149C467.18653378 560.9055582999999 447.08156474 540.8212752 422.29347119 540.8212752zM601.89000488 540.8212752c-24.78899268 0-44.89396172 20.08518222-44.89396171 44.8076206 0 24.76560849 20.10496904 44.80582148 44.89396172 44.80582149 24.80967862 0 44.91374854-20.04021299 44.91374853-44.80582149C646.80465253 560.9055582999999 626.69968349 540.8212752 601.89000488 540.8212752zM781.50812363 540.8212752c-24.80877949 0-44.91554766 20.08518222-44.91554765 44.8076206 0 24.76560849 20.10676729 44.80582148 44.91554766 44.80582149 24.78989268 0 44.89396172-20.04021299 44.89396172-44.80582149C826.40208535 560.9055582999999 806.29801631 540.8212752 781.50812363 540.8212752zM787.78766622 177.07729365L691.69771513 271.98364717000004 310.03698096 271.98364717000004c-47.23597441 0-67.34184258 20.96118809-67.34184258 67.21053135l0 291.24053877L107.97098135 630.43471729c-23.60629511 0-44.67361114-7.61513731-44.89396172-30.76094444-0.37234776-37.23655342-0.06565518-21.09070019 0-14.04487793l0-448.06451221c0.21945146-22.75277344 22.51263604-43.01063877 44.89396172-44.80582148 0-2.79890244 44.91464766 0 44.91464766 0l9.97693593-92.54365576c0-2.8879418 0.28330752-5.68864336 0.85262168-8.44707305 0.41731699-1.88152471 1.09545732-3.67580742 1.75021348-5.46829278 0.28420752-0.78876563 0.43710381-1.61980137 0.7446955-2.36269774 0.69972539-1.61890224 1.64048818-3.06332315 2.53717998-4.55091417 0.48207305-0.83193575 0.8544208-1.79428359 1.42283497-2.58304833 1.40035078-2.01193594 3.01835391-3.89346065 4.74608232-5.64367325 0.17448135-0.17358223 0.28420752-0.39393281 0.46048799-0.56751503 7.633125-7.43885684 18.11371904-12.03384112 29.70955722-12.20922247 0.19696641 0 0.35076182-0.04317099 0.54592999-0.04317099 11.79280459 0 22.49015185 4.68222539 30.23480039 12.25239257l119.06037685 122.16507188 449.02506094 0c23.62788018 0 43.12216318 9.93466406 43.12216318 33.08047119l0 27.91707188c-23.01719414 0-43.80030352 8.96781973-59.15829111 23.4515997L787.78766622 177.07729365z"  horiz-adv-x="1024" />

    
    <glyph glyph-name="qq1" unicode="&#58898;" d="M164.33544922 312.18105469c-29.47851563-69.40195313-34.26416016-135.61259766-10.59873047-147.98144532 16.32304687-8.521875 41.91152344 10.88261719 65.86171875 46.50205079 9.48427734-38.80986328 32.95283203-73.94853516 66.47431641-102.13769532-35.15976562-12.9796875-58.12646484-34.17714844-58.12646485-58.21171875 0-39.51035156 62.14658203-71.45683594 138.84785157-71.45683593 69.18398437 0 126.48076172 25.96113281 137.05664062 60.09169922 2.840625 0.04306641 13.76630859 0.04306641 16.51992188 0 10.61982422-34.0875 67.96054687-60.09169922 137.09970703-60.09169922 76.69951172 0 138.84785156 31.99042969 138.84785156 71.45683593 0 23.99150391-22.94384766 45.23203125-58.12646484 58.21171875 33.47666016 28.23310547 57.03134766 63.32783203 66.47255859 102.13769532 23.95107422-35.61943359 49.47363281-55.02392578 65.81865234-46.50205078 23.68652344 12.36884766 19.01162109 78.6234375-10.575 147.98144531-23.16357422 54.54316406-54.58886719 94.70566406-78.6243164 103.57734375 0.34980469 3.45322266 0.52382812 6.99433594 0.52382812 10.48974609 0 21.065625-5.85439453 40.55800781-15.8633789 56.42226563 0.17490234 1.22431641 0.17490234 2.49082031 0.17490234 3.71513671 0 9.70136719-2.31679688 18.79189453-6.25253906 26.65898438-6.07236328 141.77548828-98.37597656 254.35722656-247.73378907 254.35722656-149.44570312 0-241.79238281-112.58173828-247.80146484-254.35722656-3.97705078-7.91103516-6.27099609-17.00068359-6.27099609-26.65898438 0-1.22431641 0.08701172-2.49169922 0.13183593-3.71513671-9.92109375-15.86425781-15.77724609-35.31269531-15.77724609-56.42226563 0-3.49628906 0.13183594-6.99169922 0.43769531-10.48974609-23.86318359-8.87167969-55.39570312-49.07900391-78.51533203-103.57734375z"  horiz-adv-x="1024" />

    
    <glyph glyph-name="yanzhengma" unicode="&#58924;" d="M161.45666666 22.74000000000001A62.85 62.85 0 0 0 98.66666666 85.5V682.5c0 34.59 28.14 62.76 62.79 62.76H694.46666666c34.62 0 62.79-28.14 62.79-62.76v-149.55a30.84 30.84 0 0 0-30.78-30.63 30.84 30.84 0 0 0-30.75 30.63l-0.03 106.92c0 16.2-1.44 28.41-8.43 35.43-6.96 6.96-19.2 8.4-35.4 8.4H204.08666666c-16.23 0-28.44-1.44-35.43-8.4-6.99-7.05-8.4-19.29-8.4-35.46v-511.71c0-16.2 1.44-28.41 8.43-35.43 6.96-6.99 19.2-8.43 35.43-8.43h447.72c16.2 0 28.41 1.44 35.4 8.43 6.99 6.99 8.43 19.23 8.43 35.43v41.58c0.09 18 13.89 31.74 30.78 31.74s30.69-13.74 30.78-30.63v-85.32a62.85 62.85 0 0 0-62.79-62.76H161.45666666z m562.23 234.33c-7.98 0-15.54 3.03-21.27 8.46l-149.58 149.67a30.66 30.66 0 0 0 21.72 52.47c8.19 0 15.87-3.18 21.72-9l127.32-127.29 234.54 234.54a30.84 30.84 0 0 0 43.59-43.59l-256.2-256.14a31.2 31.2 0 0 0-21.84-9.12zM257.36666666 278.54999999999995c-16.95 0-30.75 13.83-30.75 30.78s13.8 30.78 30.75 30.78h191.91c16.95 0 30.75-13.83 30.75-30.78s-13.8-30.78-30.75-30.78H257.36666666z m0 149.28a30.81 30.81 0 0 0 0 61.59h191.91a30.81 30.81 0 0 0 0-61.59H257.36666666z"  horiz-adv-x="1024" />

    
    <glyph glyph-name="zengjia" unicode="&#58899;" d="M91.30625 413.25h842.85v-58.6125H91.30625zM483.48125 805.425h58.6125v-842.85H483.48125z"  horiz-adv-x="1024" />

    
    <glyph glyph-name="liulan" unicode="&#58989;" d="M510.31253333 545.41226667c-87.0304 0-157.84853333-70.81813333-157.84853333-157.86346667 0-87.03146667 70.81813333-157.85066667 157.84853333-157.85066667s157.8496 70.8192 157.8496 157.85066667c0 87.04533333-70.81813333 157.86346667-157.8496 157.86346667z m0-255.82933334c-54.0192 0-97.96586667 43.94666667-97.96586666 97.96586667s43.94666667 97.9808 97.96586666 97.9808c54.02026667 0 97.96693333-43.9616 97.96693334-97.9808 0-54.02026667-43.94666667-97.96693333-97.96693334-97.96693333zM981.9456 399.80053333C911.2 557.78133333 717.25546667 668.11626667 510.31253333 668.11626667S109.42613333 557.78026667 38.68053333 399.80053333l-5.48266666-12.2368 5.48266666-12.2368C99.06133333 240.49066667 280.448 104 510.31253333 104s411.25333333 136.49066667 471.63306667 271.328l5.48266667 12.2368-5.48266667 12.2368zM510.31253333 163.88160000000005c-197.27786667 0-353.27146667 110.56853333-411.1072 223.6672 57.28 111.62133333 213.06666667 220.6848 411.1072 220.6848s353.8272-109.06346667 411.1072-220.6848c-57.83466667-113.09866667-213.8272-223.6672-411.1072-223.6672z"  horiz-adv-x="1024" />

    
    <glyph glyph-name="youxiang" unicode="&#58986;" d="M863.26578125 674.0390625H160.79117188A71.19140625 71.19140625 0 0 1 90.12710938 602.37304688v-436.79882813c0-39.55078125 31.640625-71.61328125 70.61132812-71.61328125H863.21304688c39.07617188 0 70.61132813 32.00976563 70.61132812 71.61328125V602.3203125c0 39.55078125-31.53515625 71.66601563-70.61132812 71.66601563z m-16.875-51.31054688L566.21304687 370.81640625c-24.41601563-22.09570313-42.55664063-33.06445313-54.2109375-33.06445313-11.65429688 0-29.79492188 10.96875-54.2109375 33.06445313L177.6134375 622.72851563H846.33804688zM142.65054687 181.5V576.21679688l218.79492188-194.58984376-218.84765625-200.12695312z m36.75585938-36.22851563l219.63867187 197.75390626 36.01757813-32.00976563c20.8828125-18.50976563 46.66992188-28.0546875 76.93945312-28.0546875 30.42773437 0 56.05664063 9.4921875 76.9921875 28.0546875l36.01757813 32.00976562 219.63867187-197.75390624H179.40640625z m702 36.22851563l-218.84765625 200.07421875 218.84765625 194.58984375v-394.6640625z"  horiz-adv-x="1024" />

    
    <glyph glyph-name="wechat" unicode="&#58987;" d="M670.6 528.1c10.3 0 20.4-0.8 30.5-1.9-27.4 127.8-164 222.7-320 222.7-174.3-0-317.1-118.8-317.1-269.7 0-87.1 47.5-158.6 126.9-214.1l-31.7-95.4 110.8 55.6c39.7-7.9 71.5-15.9 111.1-15.9 9.9 0 19.8 0.5 29.6 1.3-6.2 21.2-9.8 43.4-9.8 66.4 0.1 138.6 119 251 269.7 251zM500.1 614.1c23.9 0 39.7-15.7 39.7-39.6 0-23.8-15.8-39.7-39.7-39.7-23.8 0-47.6 15.9-47.6 39.7-0.1 23.9 23.8 39.6 47.6 39.6zM278.1 534.8c-23.8 0-47.8 15.9-47.8 39.7 0 23.9 24 39.6 47.8 39.6 23.8 0 39.6-15.7 39.6-39.6 0-23.8-15.8-39.7-39.6-39.7zM960 280.9c0 126.8-126.9 230.1-269.4 230.1-150.9 0-269.7-103.3-269.7-230.1 0-127 118.8-230.1 269.7-230.1 31.6 0 63.5 8 95.2 15.9l87-47.6-23.8 79.2c63.6 47.8 111 111.1 111 182.6zM603.2 320.6c-15.8 0-31.7 15.7-31.7 31.7 0 15.8 15.9 31.7 31.7 31.7 24 0 39.7-15.9 39.7-31.7 0-16-15.7-31.7-39.7-31.7zM777.6 320.6c-15.7 0-31.5 15.7-31.5 31.7 0 15.8 15.8 31.7 31.5 31.7 23.8 0 39.7-15.9 39.7-31.7 0-16-15.9-31.7-39.7-31.7z"  horiz-adv-x="1024" />

    
    <glyph glyph-name="password" unicode="&#59110;" d="M762 491.5h-35.8v73.7c0 127.2-92.7 230.7-206.6 230.7H503c-113.9 0-206.6-103.5-206.6-230.7v-73.7h-35.8v73.7c0 147 108.7 266.6 242.4 266.6h16.6C653.3 831.8 762 712.2 762 565.2v-73.7zM797.8-63.60000000000002h-573c-49.4 0-89.5 40.2-89.5 89.5v394c0 49.4 40.2 89.5 89.5 89.5h573c49.4 0 89.5-40.2 89.5-89.5V26c0.1-49.4-40.1-89.6-89.5-89.6z m-573 537.2c-29.6 0-53.7-24.1-53.7-53.7V26c0-29.6 24.1-53.7 53.7-53.7h573c29.6 0 53.7 24.1 53.7 53.7V419.9c0 29.6-24.1 53.7-53.7 53.7h-573zM511.3 61.799999999999955h-0.3c-9.9 0.2-17.8 8.3-17.6 18.2 0.7 41.4 1.2 86.6 0.9 108.7-49.1 9-90.4 55.4-90.4 105.9 0 59.2 48.2 107.4 107.4 107.4s107.4-48.2 107.4-107.4c0-33.8-16.2-66-43.3-86.2-8-5.9-19.2-4.3-25.1 3.7-5.9 7.9-4.3 19.1 3.7 25.1 18.3 13.7 28.9 34.6 28.9 57.5 0 39.5-32.1 71.6-71.6 71.6s-71.6-32.1-71.6-71.6c0-36.8 34.8-71.6 71.6-71.6 4.8 0 9.5-2 12.8-5.4 6.7-6.8 7.4-7.5 5.1-138.2-0.1-9.9-8.1-17.7-17.9-17.7z"  horiz-adv-x="1024" />

    
    <glyph glyph-name="gantanhao-yuankuang" unicode="&#59628;" d="M512 832C264.8 832 64 631.2 64 384s200.8-448 448-448 448 200.8 448 448S759.2 832 512 832z m32-704h-64v64h64v-64z m-64 128V640h64v-384h-64z"  horiz-adv-x="1024" />

    
    <glyph glyph-name="tixing" unicode="&#58886;" d="M632.15 56.231250000000045a119.25 119.25 0 1 0-238.5 0h238.5zM592.4375 751.59375a79.5375 79.5375 0 1 1-157.89375-13.1625C324.74375 700.2375 234.6875 582.73125 234.6875 443.7375v-109.40625s0-157.6125-38.7-158.9625a39.88125 39.88125 0 0 1-40.78125-39.7125c0-22.1625 17.775-39.76875 39.76875-39.76875H830.825a39.7125 39.7125 0 1 1 0 79.48125c-39.76875 0-39.76875 157.8375-39.76875 157.8375V443.7375c0 139.1625-84.15 256.725-199.74375 294.8625a82.125 82.125 0 0 1 1.125 12.99375z"  horiz-adv-x="1024" />

    
    <glyph glyph-name="pinglun" unicode="&#59070;" d="M798.00664063 788.70292969h-582.74033204c-75.07705078 0-136.56621094-66.49628906-136.56621093-143.00332031v-377.53154297c0-75.79248047 59.34462891-126.55898438 135.13710937-126.55898438h53.62646485v-161.59482422l188.76445312 161.59482422h350.36103516c75.07705078 0 135.13710938 50.76650391 135.13710937 126.55898438v377.53154296c0 76.50878906-68.64257813 143.00332031-143.71787109 143.00332032zM887.38701172 268.16718749999995c0-50.05107422-40.75576172-72.93076172-80.79521484-72.93076172h-370.37988282l-15.01523437-12.86982422-99.38935547-85.80410156v97.95849609h-107.25292969c-40.03857422 0-80.79521484 22.88056641-80.79521484 72.93076172v378.24521485c0 47.18935547 38.61035156 88.66230469 82.22783203 88.66230468h582.02753906c46.47568359 0 90.09404297-42.90117187 90.09404297-88.66230468v-377.53154297zM321.08925781 511.98808594c-16.44433594 9.29707031-37.18212891 9.29707031-53.62646484 0s-27.17050781-27.17050781-27.17050781-46.4756836 10.00898437-37.18212891 27.17050781-46.47568359c16.44433594-9.29707031 37.18212891-9.29707031 53.62646484 0s27.17050781 27.17050781 27.17050782 46.47568359c0 18.58974609-10.00898437 36.46669922-27.17050782 46.4756836zM537.02597656 511.98808594c-16.44433594 9.29707031-37.18212891 9.29707031-53.62646484 0s-27.17050781-27.17050781-27.17050781-46.4756836c0-30.03222656 24.31054688-53.62646484 53.62646484-53.62646484 30.03222656 0 53.62646484 24.31054688 53.62646484 53.62646484 0.71455078 18.58974609-10.00898437 36.46669922-26.45419921 46.4756836zM752.96357422 511.98808594c-16.44433594 9.29707031-37.18212891 9.29707031-53.62646485 0s-27.17050781-27.17050781-27.17050781-46.4756836 10.00898437-37.18212891 27.17050781-46.47568359c16.44433594-9.29707031 37.18212891-9.29707031 53.62646485 0s27.17050781 27.17050781 27.17050781 46.47568359c-0.71455078 18.58974609-10.72441406 36.46669922-27.17050781 46.4756836z"  horiz-adv-x="1024" />

    
    <glyph glyph-name="web__youxiangrenzheng" unicode="&#58928;" d="M146.588 81.048c-34.656 0-62.85 28.206-62.85 62.874V590.798c0 34.7 28.194 62.93 62.85 62.93H875.36c34.65 0 62.845-28.232 62.85-62.931v-446.875c0-34.668-28.195-62.874-62.85-62.874H146.588z m-7.884 31.744h744.621L628.236 339.32l-44.197-38.81c-20.176-17.557-44.087-26.108-73.066-26.108-28.599 0-53.162 8.79-73.008 26.125l-44.183 38.792-255.078-226.526zM651.569 365.03l252.944-228.103V586.892L651.569 365.029z m-534.11-228.103l252.95 228.103-252.95 221.863v-449.966z m330.387 209.24c27.89-24.88 47.956-36.475 63.127-36.475 15.17 0 35.234 11.596 63.147 36.496l311.04 275.796H136.783l311.064-275.818z"  horiz-adv-x="1024" />

    
    <glyph glyph-name="tupian" unicode="&#58888;" d="M827.63720703 452.77441406a105.33691406 105.33691406 0 1 1 0 210.63867188 105.33691406 105.33691406 0 0 1 0-210.63867188z m184.23808594 350.96308594H151.8875c-34.23779297 0-61.46191406-27.86220703-61.46191406-62.1v-718.12529297c0-34.23691406 27.22412109-62.1 61.46191406-62.1h859.98779297c34.23691406 0 61.46191406 27.86308594 61.46191406 62.1V741.6375c0 34.23779297-27.225 62.1-61.46191406 62.1z m-226.125-433.6875a37.64970703 37.64970703 0 0 1-28.08808594 13.6125c-11.17441406 0-19.04941406-5.24970703-28.08720703-12.4875l-41.02470703-34.68779297c-8.55-6.14970703-15.37558594-10.31220703-25.2-10.31220703a36.29970703 36.29970703 0 0 0-24.15058594 9 297.14941406 297.14941406 0 0 0-9.45 9L511.73720703 471.82470703a48.375 48.375 0 0 1-36.63720703 16.50058594c-14.69970703 0-28.31220703-7.27558594-36.86220703-17.13779297L160.62470703 136.46220702999995V707.85058594c2.17529297 14.92558594 13.80058594 25.68779297 28.72529297 25.68779297h784.8c15.14970703 0 27.41308594-11.21220703 28.31220703-26.325l0.63808594-571.20029297L785.67382813 370.04999999999995z"  horiz-adv-x="1152" />

    
    <glyph glyph-name="shouji" unicode="&#59320;" d="M540.125 33.89999999999998h-56.25a28.125 28.125 0 0 0 0 56.25h56.25a28.125 28.125 0 0 0 0-56.25zM554.1875 665.25h-84.375a28.125 28.125 0 0 0 0 56.25h84.375a28.125 28.125 0 0 0 0-56.25zM779.1875 130.875h-534.375a28.125 28.125 0 0 0 0 56.25h534.375a28.125 28.125 0 0 0 0-56.25zM751.0625-66h-478.125c-30.99375 0-56.25 25.2-56.25 56.25V777.75c0 30.99375 25.25625 56.25 56.25 56.25h478.125c31.05 0 56.25-25.25625 56.25-56.25v-787.5a56.25 56.25 0 0 0-56.25-56.25z m0 56.25v-28.125 28.125zM272.9375 777.75v-787.5h478.125V777.75h-478.125z"  horiz-adv-x="1024" />

    
    <glyph glyph-name="shijian" unicode="&#59073;" d="M926.45 559.05c-22.5 53.55-54.9 101.7-96.3 143.1s-89.55 73.8-143.1 96.3C631.7 821.85 572.3 834 512 834 451.25 834 392.3 822.3 336.95 798.45c-53.55-22.5-101.7-54.9-143.1-96.3S120.05 612.6 97.55 559.05C73.7 503.7 62 444.75 62 384s11.7-119.7 35.55-175.05c22.5-53.55 54.9-101.7 96.3-143.1s89.55-73.8 143.1-96.3c55.35-23.4 114.3-35.55 175.05-35.55s119.7 11.7 175.05 35.55c53.55 22.5 101.7 54.9 143.1 96.3s73.8 89.55 96.3 143.1c23.4 55.35 35.55 114.3 35.55 175.05s-12.15 119.7-35.55 175.05m-118.35-201.6H512c-14.4 0-26.55 11.7-26.55 26.55 0 2.25 0.45 4.05 0.9 6.3-0.45 2.25-0.9 4.05-0.9 6.3v283.5c0 14.4 11.7 26.55 26.55 26.55 14.4 0 26.55-11.7 26.55-26.55v-270h270c14.4 0 26.55-11.7 26.55-26.55-0.45-13.95-12.15-26.1-27-26.1m0 0z"  horiz-adv-x="1024" />

    
    <glyph glyph-name="xing" unicode="&#58910;" d="M255.83249023-66c-6.43888037 0-12.65572969 2.88639404-16.76329101 7.7710623-4.21857685 4.99568291-5.99481914 11.4345624-4.88466739 17.87344278l51.17799463 298.40878213L68.66091055 469.31515987c-5.99481914 5.88380449-8.10410713 14.5429875-5.5507588 22.53607997 2.55334922 7.99309248 9.43628994 13.76588145 17.76242726 14.98704786l299.62994941 43.51794785L514.38682637 821.78833067c3.66350097 7.4380166 11.32354776 12.21166933 19.64968506 12.21166933s15.98618497-4.77365273 19.64968594-12.21166934l133.99531259-271.43209511 299.62994942-43.51794786c8.21512266-1.22116729 15.09806338-6.99395625 17.76242724-14.98704785 2.55334922-7.99309248 0.44406035-16.65227549-5.55075879-22.53607997L782.71049727 258.05328721l51.17799375-298.40878213c1.44319747-8.21512266-1.99827334-16.54126084-8.77019854-21.42592823-6.77192519-4.88466739-15.76415479-5.55075879-23.09115586-1.66522763L534.03651143 77.43160252999996 266.04588623-63.44665078000003c-3.1084251-1.66522763-6.66091055-2.55334922-10.213396-2.55334922zM131.16245205 469.75922021l193.16639971-188.28173144c5.21771308-4.99568291 7.54903213-12.32268398 6.32786485-19.42765489l-45.62723585-265.8813372 238.79363467 125.44714424c6.43888037 3.33045528 13.98791162 3.33045528 20.42679199 0l238.79363555-125.55815977-45.62723584 265.88133721c-1.22116729 7.1049709 1.11015176 14.43197197 6.32786484 19.42765489l193.16639883 188.28173232-266.99148896 38.74429511c-7.1049709 0.99913623-13.32182021 5.55075879-16.54125997 11.98963828L534.03651143 762.50622891l-119.4523251-242.01307441c-3.21943974-6.43888037-9.32527441-10.99050205-16.54126084-11.98963917L131.16245205 469.75922021z"  horiz-adv-x="1074" />

    
    <glyph glyph-name="time-o" unicode="&#58880;" d="M512.672-58.642c-245.070 0-443.74 198.671-443.74 443.743 0 245.070 198.671 443.743 443.74 443.743 245.075 0 443.743-198.673 443.743-443.743 0-245.073-198.669-443.743-443.743-443.743zM512.672 762.264c-208.3 0-377.161-168.861-377.161-377.163s168.861-377.165 377.161-377.165c208.302 0 377.163 168.863 377.163 377.165s-168.861 377.163-377.163 377.163zM726.381 328.374h-224.66c-6.456 0-12.217 2.741-16.36 7.060-4.318 4.142-7.064 9.905-7.064 16.362v270.56c0 12.571 10.19 22.761 22.761 22.761h22.599c12.569 0 22.759-10.19 22.759-22.761v-225.863h179.964c12.569 0 22.759-10.19 22.759-22.761v-22.599c-0.001-12.569-10.19-22.758-22.759-22.758z"  horiz-adv-x="1024" />

    
    <glyph glyph-name="dianhua-copy" unicode="&#59915;" d="M856.83 458.371c-17.23-21.268-34.764-10.414-39.843-6.999-17.23 11.578-12.117 94.494-92.879 173.378-101.495 78.068-133.799 51.42-166.569 75.31-12.907 22.505-1.783 37.85-1.783 37.85 21.705 23.32 111.548 17.137 211.969-76.010 119.529-122.227 89.107-203.53 89.107-203.53v0zM856.83 458.371zM561.231 588.943c0 0 100.42-7.811 135.146-118.456 0 0 4.847-33.385 32.307-32.040 0 0 39.575 4.578 27.731 45.773 0 0-9.155 58.956-64.612 106.878 0 0-65.96 57.608-120.611 51.151 0 0-12.833-1.798-20.727-15.883-7.898-14.093 0.711-34.552 10.765-37.424v0zM561.231 588.943zM895.87 191.308l-133.804 91.264c-69.996 37.422-122.938-11.396-122.938-11.396-29.254-20.19-55.727-5.204-55.727-5.204-14.364 7.18-30.513 24.95-32.099 26.561-1.585 1.616-148.636 150.223-148.636 150.223-27.461 38.23 1.616 83.995 1.616 83.995 16.149 26.926 6.458 62.461 6.458 62.461-22.073 120.071-103.374 191.683-103.374 191.683-44.692 40.379-94.232 6.461-94.232 6.461-107.683-59.232-121.682-144.606-121.682-144.606-2.696-47.682 42.535-146.152 42.535-146.152 22.613-51.686 79.687-130.839 79.687-130.839 71.071-100.148 253.066-257.912 253.066-257.912 109.839-93.145 240.677-132.727 240.677-132.727 71.078-26.918 117.92 8.083 117.92 8.083 46.037 32.302 90.724 101.759 90.724 101.759 43.342 70.808-20.19 106.343-20.19 106.343v0zM802.988 42.429c-39.039-34.189-127.88 4.58-127.88 4.58-86.153 43.074-172.313 113.256-172.313 113.256-297.234 220.942-349.966 457.485-349.966 457.485-16.154 68.922 90.455 119.531 90.455 119.531 18.039 8.078 29.616-6.459 29.616-6.459 6.729-5.388 84.532-127.88 84.532-127.88 17.501-32.843-25.576-88.303-25.576-88.303-20.725-39.843-4.036-69.077-4.036-69.077 9.155-17.922 43.884-56.647 43.884-56.647 13.459-16.96 158.298-156.419 158.298-156.419 64.61-68.913 121.418-21.532 121.418-21.532 46.031 30.961 55.456 26.652 55.456 26.652 17.771-0.811 62.188-29.614 62.188-29.614 86.962-52.228 95.841-75.648 95.841-75.648 7.811-37.962-61.915-89.924-61.915-89.924v0zM802.988 42.429z"  horiz-adv-x="1024" />

    
    <glyph glyph-name="yonghu2" unicode="&#58887;" d="M506.312 359.688c-127.008 0-230.304 103.32-230.304 230.304s103.32 230.304 230.304 230.304 230.304-103.32 230.304-230.304S633.32 359.688 506.312 359.688zM732.032-43.39200000000005L732.032-43.39200000000005c-0.192 0-2.376 0.024-2.568 0.024l-469.44 0c-70.56 3.936-111.984 50.04-114.672 126.504-0.672 18.696 8.472 48.24 13.344 58.2 65.976 134.592 200.016 218.184 349.824 218.184 157.656 0 299.16-89.616 352.104-223.008 20.616-51.96 20.136-94.416-1.464-126.192C824.432-40.799999999999955 747.176-43.39200000000005 732.032-43.39200000000005z"  horiz-adv-x="1024" />

    
    <glyph glyph-name="yonghu" unicode="&#58881;" d="M824.786 524.985C824.786 695.6610000000001 684.755 834 512 834S199.223 695.6610000000001 199.223 524.985c0-98.55 46.854-186.111 119.556-242.685C188.405 216.64499999999998 96.65 85.91999999999996 86.489-66h46.782C144.242 76.26300000000003 236.564 202.21799999999996 365.39 252.29399999999998 406.331 232.836 463.535 215.97000000000003 512 215.97000000000003c48.474 0 94.185 11.205 135.126 30.654l32.094 18.594 25.983 17.073c72.729 56.583 119.583 144.144 119.583 242.694zM512 266.31600000000003c-144.621 0-261.837 115.812-261.837 258.696C250.163 667.851 367.379 783.681 512 783.681c144.612 0 261.864-115.83 261.864-258.669 0-142.884-111.438-258.696-261.864-258.696z m264.609-29.412l-0.225-0.324a28.206 28.206 0 0 1-19.548 7.947c-15.732 0-28.467-5.985-28.467-21.708 0-10.863 6.291-19.971 15.201-24.759l-0.189-0.279c85.536-61.119 128.664-153.666 137.16-263.781h56.97c-8.172 122.31-69.327 231.201-160.902 302.904z m0 0"  horiz-adv-x="1024" />

    
    <glyph glyph-name="erweima" unicode="&#58882;" d="M91.0594775 410.19216188l396.7150275-1e-8L487.774505 806.90622938 91.0594775 806.90622938 91.0594775 410.19216188zM190.23895437 707.7277125l198.35703376 0-1e-8-198.35703375L190.23895437 509.37067875 190.23895437 707.7277125zM537.36424344 806.90622938l0-396.7150275 396.7150275 0L934.07927 806.90622938 537.36424344 806.90622938zM834.89979406 509.37067875L636.54276031 509.37067875 636.54276031 707.7277125l198.35703375 0L834.89979406 509.37067875zM239.82773281 558.95945719l99.17851688 0L339.00624969 658.13893406 239.82773281 658.13893406 239.82773281 558.95945719zM91.0594775-36.11260405999997l396.7150275 0L487.774505 360.60242344000005 91.0594775 360.60242344000005 91.0594775-36.11260405999997zM190.23895437 261.42390656l198.35703376 0-1e-8-198.35703375L190.23895437 63.06687280999995 190.23895437 261.42390656zM785.31101469 658.13893406L686.13153875 658.13893406l0-99.17851687 99.17851687 0L785.31005563 658.13893406zM537.36424344-36.11260405999997l99.17851687 0L636.54276031 63.06591375000005 537.36424344 63.06591375000005 537.36424344-36.11260405999997zM636.54276031 261.42390656l0-198.35703375 99.17851688 0L735.72127719 261.42390656 636.54276031 261.42390656zM834.89979406 63.06591375000005L735.72127719 63.06591375000005 735.72127719-36.11260405999997l198.35703375 0L934.07831094 162.24538969000002 834.89979406 162.24538969000002 834.89979406 63.06591375000005zM834.89979406 261.42390656l99.17851688 0L934.07831094 360.60242344000005 834.89979406 360.60242344000005 834.89979406 261.42390656zM537.36424344 360.60242344000005l0-99.17851688 99.17851687 0L636.54276031 360.60242344000005 537.36424344 360.60242344000005zM239.82773281 112.65565125l99.17851688 0L339.00624969 211.83416812999997 239.82773281 211.83416812999997 239.82773281 112.65565125z"  horiz-adv-x="1024" />

    
    <glyph glyph-name="ecurityCode" unicode="&#58893;" d="M513.58823545-66C370.64705908-66 113.35294092 157.41176455000004 109.64705908 377.11764727V628.58823545a82.05882363 82.05882363 0 0 0 71.47058819 77.8235291 501.35294092 501.35294092 0 0 1 143.47058818 35.47058818A345.70588271 345.70588271 0 0 1 454.8235291 813.35294092a89.47058818 89.47058818 0 0 0 105.88235361 4.76470635A553.23529453 553.23529453 0 0 1 692 742.94117636a1103.29411729 1103.29411729 0 0 1 149.29411729-33.88235272 86.82352911 86.82352911 0 0 0 69.8823536-79.94117637 2558.64705908 2558.64705908 0 0 0-2.64705907-256.23529454C874.64705908 89.64705907999996 653.35294092-66 513.58823545-66z m0 847.05882364a34.41176455 34.41176455 0 0 1-21.70588272-6.88235274A385.41176455 385.41176455 0 0 0 342.58823545 692.11764727a534.70588271 534.70588271 0 0 0-158.82352998-38.11764727 29.64705908 29.64705908 0 0 1-21.17647002-26.47058818v-249.35294092C166.29411729 182.82352910999998 404.52941182-13.058823630000006 513.58823545-13.058823630000006s311.29411729 130.23529453 344.11764726 390.70588271c7.94117637 154.58823545 0 247.76470547 0 248.8235291a33.88235273 33.88235273 0 0 1-25.94117724 29.64705909 1131.88235273 1131.88235273 0 0 0-158.82352911 36.52941181A594.52941182 594.52941182 0 0 0 533.1764709 775.76470547a32.82352911 32.82352911 0 0 1-21.1764709 5.29411817zM751.8235291 467.64705908L490.8235291 220.94117637a35.47058818 35.47058818 0 0 0-43.41176455-4.23529366l-6.88235273 5.82352911-141.88235274 150.35294091a35.47058818 35.47058818 0 1 0 52.94117637 48.70588272l117.52941182-124.41176456 235.05882362 222.35294093a35.47058818 35.47058818 0 1 0 48.70588184-52.94117637"  horiz-adv-x="1024" />

    
    <glyph glyph-name="huo" unicode="&#58885;" d="M646.63198025-83.06940839000004l-3.10689186 0.77672296c-4.01306864 0.9061768-11.13302914 2.97743803-16.6995437 6.34323753-55.53569185 24.59622717-96.05473975 81.42645728-131.91344987 131.78399605-8.15559111 11.3919368-16.05227457 22.52496592-23.94895802 33.01072593-29.51547259 38.96560197-52.94661531 74.17704297-71.07015111 106.54049975-6.08432987-12.03920592-10.74466765-25.37295013-12.16865977-40.38959408-3.88361482-42.59030914 14.62828247-85.18061827 32.62236445-126.21748148l5.82542222-13.33374419c0.77672297-1.81235358 21.74824297-56.31241482 21.74824296-56.31241483l13.46319803-35.21144098-36.11761777 10.61521383c-36.24707161 10.61521383-49.58081581 14.7577363-54.88842272 16.44063605-68.61052839 7.76722963-131.65454222 42.33140148-177.86955852 97.34927802-3.23634569 2.71853037-6.08432987 5.69596839-8.28504494 9.06176791-3.75416098 5.43706075-7.24941431 11.00357531-10.74466766 16.57008987-4.2719763 6.34323753-8.67340642 13.33374419-12.81592888 20.71261235-1.55344592 2.97743803-2.84798419 5.95487605-3.88361482 9.32067555-46.60337778 93.98347852-46.99173925 200.39452445-0.90617679 292.30674173 29.12711111 57.99531457 78.31956543 106.2815921 125.82912 152.88496989 69.90506667 68.48107457 135.79706469 133.07853431 140.32794865 224.47293628 0.25890765 4.01306864-0.64726914 23.81950419-1.55344594 40.5190479l-1.55344592 29.77438025 27.44421136-11.65084443c5.69596839-2.45962272 34.8230795-14.88719013 44.14375506-20.97152 1.94180741-0.9061768 4.53088395-2.58907653 7.11996049-4.66033778C578.66872098 753.72013037 666.05005431 686.92195555 681.97287506 563.94081975c2.58907653-19.80643555 3.49525333-45.69720098 1.55344592-73.40032 7.89668347 15.79336691 13.59265185 31.97509531 17.21735902 46.08556247 1.81235358 7.24941431 2.71853037 23.43114272 2.84798419 31.97509531l0.51781531 31.84564149 27.57366519-16.05227457s28.86820347-16.82899753 35.08198716-20.19479704c101.75070815-55.27678419 138.77450272-193.92183309 130.36000396-306.80557038-9.0617679-121.94550518-90.0998637-244.40882569-216.96461433-327.9065442-8.54395259-8.15559111-22.26605827-10.87412148-30.0332879-11.90975208l-3.49525333-0.64726914z m0 38.44778666c0.12945383 0 0.9061768-0.25890765 1.9418074-0.5178153 2.20071506 0.51781531 4.40143013 1.03563061 5.6959684 1.68289975l0.77672297 0.90617678 2.58907653 1.68289975c118.19134419 77.28393482 193.66292543 189.6498568 201.94797037 300.7212405 7.50832197 100.97398518-23.81950419 223.95512098-110.94192987 271.33522173-1.81235358 1.03563061-5.69596839 3.10689185-10.09739852 5.69596839-0.51781531-3.49525333-1.03563061-6.99050667-1.81235358-9.83849085-4.78979161-18.90025876-24.46677333-84.01553383-73.78868148-122.33386667l-47.12119308-36.76488692 17.99408197 56.95968396c14.88719013 47.25064691 15.53445925 100.06780839 11.13302914 133.85525728-12.55702124 97.21982419-73.78868148 155.08568494-168.6783368 216.96461431l-5.04869925 3.36579952c-2.20071506 1.4239921-6.73159902 3.75416098-12.16865976 6.34323753 0.25890765-5.95487605 0.25890765-11.26248297 0.12945383-13.98101334-5.17815309-105.89323061-79.6141037-178.77573531-151.46097777-249.19861728-45.43829333-44.53211653-92.30057876-90.48822518-118.57970569-142.91702519-41.55467852-82.9799032-40.90740939-175.53938963 1.81235358-260.46110025l1.42399211-3.8836148c0.25890765-1.03563061 0.51781531-1.81235358 0.90617678-2.45962272 3.49525333-6.34323753 7.37886815-12.42756741 11.39193678-18.51189728 3.49525333-5.56651457 6.60214518-10.61521383 10.09739852-15.40500544 0.51781531-0.77672297 1.16508445-1.4239921 2.20071507-2.07126123l2.97743802-2.97743803c40.5190479-48.93354667 96.05473975-79.35519605 156.38022322-85.82788741l3.10689184-0.25890765 2.8479842-1.29453827c1.16508445-0.38836148 8.15559111-2.45962272 17.47626667-5.17815309-3.88361482 9.96794469-7.1199605 18.64135111-7.76722963 19.93588938l-5.56651457 12.94538272c-18.90025876 43.3670321-40.38959408 92.43003259-35.59980247 144.59992494 3.23634569 36.24707161 20.71261235 64.59745975 35.59980247 85.31007209l18.25298963 25.37295013 13.59265186-28.09148049c18.51189728-38.18887902 45.56774717-80.5202805 82.59154172-129.71273482 8.02613728-10.74466765 16.18172839-22.13660445 24.59622717-33.78744889 33.26963358-46.73283161 71.07015111-99.67944691 117.80298272-119.74479013l3.3657995-2.45962271z"  horiz-adv-x="1024" />

    
    <glyph glyph-name="icon-" unicode="&#58912;" d="M522.92266667 353.96266667c-122.88 0-221.184 98.304-221.184 221.184s98.304 221.184 221.184 221.184 221.184-98.304 221.184-221.184-98.304-221.184-221.184-221.184z m0 387.75466666c-92.84266667 0-166.57066667-73.728-166.57066667-166.57066666s73.728-166.57066667 166.57066667-166.57066667 166.57066667 73.728 166.57066666 166.57066667-73.728 166.57066667-166.57066666 166.57066666zM197.97333333-28.330666670000028H151.552v27.30666667c0 204.8 166.57066667 371.37066667 371.37066667 371.37066667 13.65333333 0 27.30666667 0 40.96-2.73066667l-5.46133334-54.61333333c-10.92266667 0-24.576 2.73066667-35.49866666 2.73066666-174.76266667 0-316.75733333-141.99466667-316.75733334-316.75733333h-8.192v-27.30666667zM894.29333333-28.330666670000028h-43.69066666v27.30666667H839.68c0 106.496-51.88266667 204.8-141.99466667 264.87466667l30.03733334 46.42133333C831.488 242.00533332999998 894.29333333 124.58666667 894.29333333 1.7066666700000042v-30.03733334z"  horiz-adv-x="1024" />

    
    <glyph glyph-name="shoucang" unicode="&#58909;" d="M701.76363594 791.45454521c-75.13636377 0-144.81818174-37.8-191.07272725-100.00909071-45.79090927 62.18181826-115.93636347 100.00909073-191.07272725 100.00909071-135.32727305 0-245.31818203-120.40909102-245.31818115-268.17272665 0-88.06363594 39.30000029-150.27272753 71.15454492-200.01818233 92.04545479-144.79090927 323.89090927-324.40909131 333.87272755-331.88181768a50.23636347 50.23636347 0 0 1 62.67272695 0c9.92727247 7.47272724 241.30909073 187.58181797 333.87272753 331.88181768 31.82727305 49.74545479 71.12727246 111.95454551 71.12727247 200.01818232 0.0545458 147.79090898-109.90909072 268.17272754-245.23636377 268.17272666z m110.91818232-466.69090868c-85.06363623-119.42727276-265.17272695-255.73636406-274.14545449-262.20000059-8.4545455-6.46363653-18.40909131-9.9545458-27.84545508-9.95454492-9.9545458 0-19.39090869 2.97272724-27.87272666 9.95454492-8.97272754 6.46363653-185.59090898 144.27272724-274.1454545 267.16363682-28.36363623 44.80909102-73.63636348 100.52727276-73.63636347 179.12727245 0 132.3545458 73.63636348 225.40909131 194.53636318 225.40909132 67.17272695 0 140.31818174-64.19999971 181.11818145-119.91818233 41.29090928 55.71818174 113.9454545 119.91818145 181.11818233 119.91818233 121.39090928 0 200.01818145-93.05454551 200.01818144-225.40909132 0-78.59999971-50.26363594-139.82727305-79.1454542-184.09090868z"  horiz-adv-x="1024" />

    
    <glyph glyph-name="dianzan2" unicode="&#58920;" d="M214.76988613 477.96306848H147.65340924c-21.09375 0-38.3522731-17.2585231-38.35227311-38.3522731V0.47727310000004763c0-21.09375 17.2585231-38.3522731 38.35227312-38.3522731h67.11647688c21.09375 0 28.76420462 17.2585231 28.76420462 38.3522731V441.52840924c0 21.09375-7.67045462 36.43465925-28.76420462 36.43465924zM837.99431848 460.70454538H588.70454538c78.62215925 74.78693152 136.15056848 345.17045462-17.25852228 345.17045462-116.97443152 0-93.96306848-111.22159076-130.39772772-182.17329538-32.59943152-63.28125-84.375-103.55113613-118.89204538-124.64488614-23.01136387-13.42329538-38.3522731-28.76420462-38.3522731-55.61079538v-402.69886385c0-42.1875 36.43465925-76.70454538 78.62215923-76.70454538h396.94602311c36.43465925 0 67.1164769 32.59943152 74.78693151 67.11647689 26.84659075 116.97443152 55.61079538 241.61931848 82.45738615 354.75852311 9.58806848 44.10511387-28.76420462 74.78693152-78.62215842 74.78693151z"  horiz-adv-x="1024" />

    
    <glyph glyph-name="dianzan1" unicode="&#58919;" d="M837.99431847 460.70454538H588.70454538c78.62215925 74.78693152 136.15056848 345.17045462-17.25852228 345.17045462-116.97443152 0-93.96306848-111.22159076-130.39772772-182.17329538-32.59943152-63.28125001-84.375-103.55113613-118.89204539-124.64488615-23.01136387-13.42329538-38.3522731-28.76420462-38.35227309-55.61079537v-402.69886385c0-42.1875 36.43465925-76.70454538 78.62215923-76.70454538h396.94602311c36.43465925 0 67.1164769 32.59943152 74.78693151 67.11647689 26.84659075 116.97443152 55.61079538 241.61931849 82.45738615 354.75852311 9.58806848 44.10511387-28.76420462 74.78693152-78.62215843 74.78693151z m38.35227229-76.70454538c-34.51704538-145.73863613-80.5397731-347.08806848-80.53977227-347.08806848-3.8352269-19.17613613-23.01136387-36.43465925-38.35227311-36.43465842H360.5085231c-21.09375001 0-40.26988613 17.2585231-40.26988697 38.35227228V441.52840924c0 13.42329538 9.58806848 17.2585231 21.09375 23.01136386 40.26988613 24.9289769 97.79829538 69.03409076 134.23295462 139.98579538 13.42329538 24.9289769 19.17613613 51.77556848 24.92897772 78.62215842 13.42329538 63.28125001 21.09375001 84.375 70.95170463 84.375 24.9289769 0 38.3522731-9.58806848 46.02272691-30.68181766 24.9289769-63.28125001-17.2585231-201.34943152-65.19886388-247.37215923-11.50568151-11.50568151-15.34090925-26.84659075-9.58806764-42.1875 5.75284075-13.42329538 26.84659075-24.9289769 46.02272689-24.92897691h249.28977311c13.42329538 0 24.9289769-1.91761387 32.59943152-11.50568235 3.8352269-5.75284075 7.67045462-13.42329538 5.75284075-26.84659075zM214.76988613 477.96306848H147.65340924c-21.09375001 0-38.3522731-17.2585231-38.35227311-38.3522731V0.47727310000004763c0-21.09375001 17.2585231-38.3522731 38.35227312-38.3522731h67.11647688c21.09375001 0 28.76420462 17.2585231 28.76420462 38.3522731V441.52840924c0 21.09375001-7.67045462 36.43465925-28.76420462 36.43465924zM205.18181847 0.47727310000004763H147.65340924V441.52840924h57.52840923v-441.05113614z"  horiz-adv-x="1024" />

    
    <glyph glyph-name="down-trangle" unicode="&#58883;" d="M530.877 72.83966668999994l285.857 285.857c10.929 10.929 10.929 29.334 0 40.837-10.929 10.929-29.334 10.929-40.837 0l-265.725-265.725-264.573 264.573c-10.929 10.929-29.334 10.929-40.837 0-10.929-10.929-10.929-29.334 0-40.837l284.703-284.703c12.077-11.502 29.908-11.502 41.418 0Z"  horiz-adv-x="1024" />

    
    <glyph glyph-name="shangwuhezuo" unicode="&#58939;" d="M1066.39317829 378.78578567c-118.18885803 0-196.4020729 114.71271516-198.14014434 116.4507866-8.6903572 12.16650009-24.33300019 29.54721451-38.23757172 27.80914306-15.64264297-1.73807144-27.80914307-20.8568573-33.0233574-27.80914306-15.64264297-36.49950027-34.76142883-59.09442902-60.83250045-69.52285767-20.8568573-6.95228576-43.45178603-5.21421433-66.04671478 5.21421432-20.8568573 10.42842865-31.28528595 34.76142883-24.33300018 57.35635758l19.11878583 67.78478622c10.42842865 34.76142883 34.76142883 64.30864334 69.52285769 78.21321488l74.73707198 33.02335739c33.02335739 13.90457153 62.5705719 10.42842865 95.5939293 3.47614288l205.0924301-48.66600036 83.4274292-196.40207291-12.16650008-8.69035721c-38.23757172-27.80914307-78.21321488-38.23757172-114.71271515-38.23757172z m-234.63964462 179.0213585c22.59492874 0 45.18985748-13.90457153 66.04671478-41.71371461 5.21421433-6.95228576 111.23657227-161.64064407 257.23457336-76.47514342l-66.04671479 154.6883583-187.7117157 45.18985748c-31.28528595 6.95228576-52.14214326 8.6903572-74.73707198-1.73807144l-74.737072-33.02335739c-24.33300019-10.42842865-41.7137146-31.28528595-48.66600036-55.61828613l-19.11878585-67.78478623c-1.73807144-6.95228576 1.73807144-13.90457153 6.95228575-15.64264297 13.90457153-6.95228576 26.07107163-8.6903572 38.23757173-3.47614288 15.64264297 5.21421433 29.54721451 22.59492874 41.71371461 50.40407181v1.73807143c1.73807144 5.21421433 22.59492874 43.45178603 60.83250045 46.92792894-3.47614289-3.47614289-1.73807144-3.47614289 0-3.47614289zM1080.29774983 272.76342773l-123.40307236 172.06907273 55.61828612-22.59492875c3.47614289-1.73807144 86.90357209-34.76142883 151.21221543 22.59492875l17.38071442 15.64264297 59.09442902-137.30764389-159.90257263-50.40407181z m-33.0233574 106.02235794l46.92792892-64.30864333 99.07007217 31.28528595-26.07107162 59.09442901c-41.7137146-27.80914307-86.90357209-29.54721451-119.92692947-26.07107163zM428.5209592 312.7390709l-159.90257264 62.5705719 12.16650009 31.28528594 128.6172867-50.40407181 116.45078658 274.61528779-130.35535812 53.88021469 13.90457154 33.02335739 161.64064407-69.52285767zM1221.08153658 281.45378494l-142.52185819 335.44778824 161.64064407 67.78478623 13.90457152-31.28528595-130.35535813-55.61828613 116.45078661-272.87721635 128.61728667 50.40407182 12.16650009-33.0233574zM1071.60739261 182.38371277c-17.38071443 0-33.02335739 6.95228576-45.18985749 19.11878586l-152.95028686 163.37871551c-6.95228576 6.95228576-6.95228576 17.38071443 0 24.33300019 6.95228576 6.95228576 17.38071443 6.95228576 24.33300019 0l152.95028686-163.37871552c6.95228576-6.95228576 15.64264297-10.42842865 26.07107164-8.69035721 10.42842865 1.73807144 17.38071443 8.6903572 20.85685728 17.38071442 1.73807144 6.95228576 1.73807144 15.64264297-3.47614288 20.85685729l-111.23657226 140.78378678c-5.21421433 6.95228576-5.21421433 19.11878586 3.47614288 24.33300018 6.95228576 5.21421433 19.11878586 5.21421433 24.33300018-3.47614288l111.23657226-140.78378677c12.16650009-15.64264297 15.64264297-36.49950027 8.69035721-53.88021469-6.95228576-20.8568573-24.33300019-36.49950027-46.92792892-39.97564316h-12.16650009zM995.13224918 126.76542663999999c-22.59492874 0-45.18985748 8.6903572-60.83250046 26.07107163l-128.61728667 135.56957244c-6.95228576 6.95228576-6.95228576 17.38071443 0 24.33300019 6.95228576 6.95228576 17.38071443 6.95228576 24.33300018 0l128.61728668-135.56957246c12.16650009-12.16650009 29.54721451-17.38071443 46.92792892-13.90457153 17.38071443 3.47614289 29.54721451 15.64264297 34.76142883 33.02335739v1.73807144c3.47614289 8.6903572 12.16650009 13.90457153 20.85685729 12.16650009 8.6903572-3.47614289 13.90457153-12.16650009 12.1665001-20.85685729v-1.73807144c-8.6903572-27.80914307-31.28528595-48.66600037-60.83250046-55.61828614-3.47614289-5.21421433-10.42842865-5.21421433-17.38071441-5.21421432zM911.70481997 76.36135482999998h-5.21421431c-20.8568573 1.73807144-41.7137146 12.16650009-57.35635758 29.5472145l-106.02235793 118.18885804c-6.95228576 6.95228576-5.21421433 17.38071443 1.73807144 24.33300019 6.95228576 6.95228576 17.38071443 5.21421433 24.33300018-1.73807145l106.02235793-118.18885803c8.6903572-10.42842865 22.59492874-17.38071443 34.76142884-17.38071442 19.11878586-1.73807144 36.49950027 10.42842865 52.14214324 33.02335739 5.21421433 8.6903572 15.64264297 10.42842865 24.33300019 5.21421433 8.6903572-5.21421433 10.42842865-15.64264297 5.21421433-24.33300018-26.07107163-38.23757172-57.35635757-48.66600037-79.95128633-48.66600037zM758.75453312 609.94928742c-92.11778641 20.8568573-206.83050156 12.16650009-208.568573 12.16650009l-3.47614288 34.76142883c5.21421433 0 121.66500092 10.42842865 218.99700164-12.1665001l-6.95228577-34.76142883zM830.01546223 50.290283199999976c-15.64264297 0-31.28528595 5.21421433-43.45178605 17.38071443l-50.4040718 48.66600035c-158.16450119 154.68835831-304.16250229 257.23457336-305.90057374 257.23457338l19.11878587 27.80914306c1.73807144-1.73807144 151.21221543-104.2842865 311.11478805-260.71071625l50.4040718-48.66600036c6.95228576-6.95228576 17.38071443-8.6903572 27.80914306-5.21421433 5.21421433 1.73807144 13.90457153 6.95228576 17.38071443 19.11878586l34.76142883-3.47614288v-1.73807145c-3.47614289-22.59492874-19.11878586-39.97564316-39.97564317-46.92792892-6.95228576-1.73807144-13.90457153-3.47614289-20.85685728-3.47614289zM541.4956029 234.52585600999998c-12.16650009 0-24.33300019 3.47614289-34.76142883 12.1665001-10.42842865 8.6903572-17.38071443 20.8568573-19.11878585 36.49950028-1.73807144 13.90457153 3.47614289 27.80914307 12.16650009 38.23757171l13.90457154 13.90457153 26.07107161-22.59492873-13.90457153-13.90457154c-3.47614289-3.47614289-5.21421433-6.95228576-3.47614287-12.16650009 0-5.21421433 1.73807144-8.6903572 5.21421431-12.1665001 8.6903572-6.95228576 20.8568573-5.21421433 27.80914307 1.73807145l12.16650008 13.90457154 26.07107163-22.59492876-12.16650009-13.90457152c-10.42842865-12.16650009-26.07107163-19.11878586-39.97564316-19.11878586zM590.16160327 159.78878403c-13.90457153 0-27.80914307 5.21421433-38.23757171 13.90457153-12.16650009 10.42842865-19.11878586 24.33300019-20.85685731 39.97564316-1.73807144 15.64264297 3.47614289 31.28528595 13.90457154 43.45178604l26.07107163 31.28528595 26.07107163-22.59492874-26.07107163-31.28528596c-3.47614289-5.21421433-6.95228576-12.16650009-5.21421434-17.38071441 0-6.95228576 3.47614289-12.16650009 8.69035722-17.38071442 10.42842865-8.6903572 26.07107163-8.6903572 34.76142884 1.73807145l29.54721451 31.28528594 26.07107161-22.59492874-29.5472145-31.28528595c-13.90457153-13.90457153-29.54721451-19.11878586-45.18985749-19.11878585zM661.42253238 114.59892653999998c-13.90457153 0-29.54721451 5.21421433-39.97564315 15.64264298-24.33300019 22.59492874-24.33300019 59.09442902-3.47614289 83.4274292l19.11878586 20.85685729 26.07107162-22.59492873-19.11878586-20.8568573c-8.6903572-10.42842865-8.6903572-26.07107163 1.73807146-34.76142884s26.07107163-8.6903572 34.76142882 1.73807144l19.11878586 20.8568573 26.07107161-24.33300017-19.11878584-20.85685731c-13.90457153-13.90457153-29.54721451-19.11878586-45.18985749-19.11878586zM730.94539006 71.14714049999998c-13.90457153 0-27.80914307 5.21421433-39.97564318 15.64264297-22.59492874 20.8568573-22.59492874 57.35635757-1.73807144 79.95128633l6.95228578 8.6903572 26.07107162-24.33300018-6.95228577-8.69035721c-8.6903572-8.6903572-8.6903572-22.59492874 0-31.28528595s22.59492874-8.6903572 31.28528595 0l10.42842866 10.42842865 24.33300018-24.33300018-10.42842865-10.42842866c-10.42842865-10.42842865-26.07107163-15.64264297-39.97564316-15.64264297z"  horiz-adv-x="1664" />

    


  </font>
</defs>
</svg>
